<svg width="310" height="384" viewBox="0 0 310 384" fill="none" xmlns="http://www.w3.org/2000/svg">
<g filter="url(#filter0_d_1_87)">
<rect x="10" y="10" width="270" height="344" rx="8" fill="#F78CB6"/>
<path d="M79.89 174.894H88.186C90.4527 174.894 92.2433 175.495 93.558 176.696C94.8727 177.897 95.53 179.461 95.53 181.388C95.53 182.635 95.2013 183.723 94.544 184.652C93.8867 185.559 93.0253 186.205 91.96 186.59C93.252 186.93 94.2947 187.621 95.088 188.664C95.8813 189.707 96.278 190.931 96.278 192.336C96.278 194.285 95.5867 195.883 94.204 197.13C92.8213 198.377 91.0193 199 88.798 199H79.89V174.894ZM83.936 185.094H87.642C88.8207 185.094 89.75 184.788 90.43 184.176C91.11 183.564 91.45 182.748 91.45 181.728C91.45 180.685 91.0987 179.869 90.396 179.28C89.716 178.668 88.764 178.362 87.54 178.362H83.936V185.094ZM83.936 195.532H88.084C89.308 195.532 90.2827 195.226 91.008 194.614C91.756 193.979 92.13 193.129 92.13 192.064C92.13 190.999 91.7787 190.149 91.076 189.514C90.396 188.857 89.444 188.528 88.22 188.528H83.936V195.532ZM109.793 182.34V186.352C109.339 186.284 108.909 186.25 108.501 186.25C105.531 186.25 104.047 187.871 104.047 191.112V199H100.103V182.442H103.945V185.094C104.33 184.21 104.953 183.519 105.815 183.02C106.676 182.499 107.651 182.238 108.739 182.238C109.101 182.238 109.453 182.272 109.793 182.34ZM112.098 194.512C112.098 193.107 112.552 191.985 113.458 191.146C114.388 190.285 115.6 189.741 117.096 189.514L121.346 188.868C122.162 188.755 122.57 188.358 122.57 187.678C122.57 186.93 122.31 186.329 121.788 185.876C121.267 185.4 120.485 185.162 119.442 185.162C118.445 185.162 117.652 185.445 117.062 186.012C116.473 186.556 116.133 187.27 116.042 188.154L112.438 187.338C112.597 185.842 113.311 184.573 114.58 183.53C115.85 182.465 117.459 181.932 119.408 181.932C121.811 181.932 123.579 182.51 124.712 183.666C125.868 184.822 126.446 186.307 126.446 188.12V196.348C126.446 197.436 126.514 198.32 126.65 199H122.978C122.865 198.66 122.808 197.957 122.808 196.892C121.72 198.637 120.02 199.51 117.708 199.51C116.031 199.51 114.671 199.023 113.628 198.048C112.608 197.051 112.098 195.872 112.098 194.512ZM118.456 196.416C119.68 196.416 120.666 196.087 121.414 195.43C122.185 194.75 122.57 193.651 122.57 192.132V191.384L118.252 192.03C116.779 192.279 116.042 193.027 116.042 194.274C116.042 194.863 116.258 195.373 116.688 195.804C117.119 196.212 117.708 196.416 118.456 196.416ZM135.158 189.446V199H131.214V182.442H135.056V184.652C135.577 183.745 136.269 183.077 137.13 182.646C138.014 182.193 138.955 181.966 139.952 181.966C141.901 181.966 143.386 182.578 144.406 183.802C145.426 185.026 145.936 186.601 145.936 188.528V199H141.992V189.208C141.992 188.097 141.72 187.213 141.176 186.556C140.632 185.876 139.771 185.536 138.592 185.536C137.504 185.536 136.654 185.91 136.042 186.658C135.453 187.383 135.158 188.313 135.158 189.446ZM153.39 190.67C153.39 192.257 153.798 193.537 154.614 194.512C155.43 195.464 156.506 195.94 157.844 195.94C159.136 195.94 160.19 195.453 161.006 194.478C161.822 193.503 162.23 192.223 162.23 190.636C162.23 189.072 161.833 187.825 161.04 186.896C160.246 185.967 159.192 185.502 157.878 185.502C156.563 185.502 155.486 185.978 154.648 186.93C153.809 187.859 153.39 189.106 153.39 190.67ZM166.038 174.384V195.974C166.038 197.085 166.094 198.093 166.208 199H162.434C162.32 198.365 162.264 197.651 162.264 196.858C161.856 197.606 161.221 198.218 160.36 198.694C159.498 199.17 158.512 199.408 157.402 199.408C155.044 199.408 153.129 198.581 151.656 196.926C150.182 195.271 149.446 193.186 149.446 190.67C149.446 188.245 150.182 186.193 151.656 184.516C153.152 182.839 155.044 182 157.334 182C158.648 182 159.702 182.238 160.496 182.714C161.312 183.19 161.878 183.745 162.196 184.38V174.384H166.038ZM175.101 199H171.191V182.442H175.101V199ZM171.327 178.43C170.828 177.931 170.579 177.331 170.579 176.628C170.579 175.925 170.828 175.325 171.327 174.826C171.825 174.305 172.426 174.044 173.129 174.044C173.854 174.044 174.466 174.293 174.965 174.792C175.463 175.291 175.713 175.903 175.713 176.628C175.713 177.331 175.463 177.931 174.965 178.43C174.466 178.929 173.854 179.178 173.129 179.178C172.426 179.178 171.825 178.929 171.327 178.43ZM184.133 189.446V199H180.189V182.442H184.031V184.652C184.552 183.745 185.243 183.077 186.105 182.646C186.989 182.193 187.929 181.966 188.927 181.966C190.876 181.966 192.361 182.578 193.381 183.802C194.401 185.026 194.911 186.601 194.911 188.528V199H190.967V189.208C190.967 188.097 190.695 187.213 190.151 186.556C189.607 185.876 188.745 185.536 187.567 185.536C186.479 185.536 185.629 185.91 185.017 186.658C184.427 187.383 184.133 188.313 184.133 189.446ZM198.522 199.918L202.16 198.966C202.296 200.009 202.738 200.859 203.486 201.516C204.257 202.196 205.197 202.536 206.308 202.536C209.436 202.536 211 200.881 211 197.572V195.838C210.615 196.541 210.003 197.119 209.164 197.572C208.325 198.025 207.339 198.252 206.206 198.252C203.985 198.252 202.149 197.493 200.698 195.974C199.27 194.455 198.556 192.529 198.556 190.194C198.556 187.95 199.27 186.046 200.698 184.482C202.126 182.918 203.962 182.136 206.206 182.136C208.631 182.136 210.263 182.941 211.102 184.55V182.442H214.91V197.436C214.91 199.884 214.219 201.913 212.836 203.522C211.453 205.154 209.311 205.97 206.41 205.97C204.279 205.97 202.489 205.392 201.038 204.236C199.587 203.08 198.749 201.641 198.522 199.918ZM206.852 194.886C208.121 194.886 209.141 194.467 209.912 193.628C210.705 192.767 211.102 191.622 211.102 190.194C211.102 188.789 210.705 187.667 209.912 186.828C209.119 185.967 208.099 185.536 206.852 185.536C205.583 185.536 204.54 185.967 203.724 186.828C202.931 187.667 202.534 188.789 202.534 190.194C202.534 191.622 202.931 192.767 203.724 193.628C204.517 194.467 205.56 194.886 206.852 194.886Z" fill="white"/>
<path d="M95.6 326H86.7V311.82H89.1V323.72H95.6V326ZM99.1747 320.06H103.955C103.928 319.447 103.708 318.933 103.295 318.52C102.895 318.107 102.315 317.9 101.555 317.9C100.861 317.9 100.301 318.12 99.8747 318.56C99.448 318.987 99.2147 319.487 99.1747 320.06ZM104.215 322.6L106.175 323.22C105.895 324.113 105.368 324.853 104.595 325.44C103.835 326.013 102.895 326.3 101.775 326.3C100.388 326.3 99.208 325.827 98.2347 324.88C97.2747 323.933 96.7947 322.667 96.7947 321.08C96.7947 319.587 97.2614 318.36 98.1947 317.4C99.1414 316.44 100.255 315.96 101.535 315.96C103.028 315.96 104.195 316.42 105.035 317.34C105.875 318.247 106.295 319.473 106.295 321.02C106.295 321.433 106.275 321.68 106.235 321.76H99.1147C99.1414 322.493 99.408 323.1 99.9147 323.58C100.435 324.06 101.055 324.3 101.775 324.3C103.028 324.3 103.841 323.733 104.215 322.6ZM107.912 323.36C107.912 322.533 108.178 321.873 108.712 321.38C109.258 320.873 109.972 320.553 110.852 320.42L113.352 320.04C113.832 319.973 114.072 319.74 114.072 319.34C114.072 318.9 113.918 318.547 113.612 318.28C113.305 318 112.845 317.86 112.232 317.86C111.645 317.86 111.178 318.027 110.832 318.36C110.485 318.68 110.285 319.1 110.232 319.62L108.112 319.14C108.205 318.26 108.625 317.513 109.372 316.9C110.118 316.273 111.065 315.96 112.212 315.96C113.625 315.96 114.665 316.3 115.332 316.98C116.012 317.66 116.352 318.533 116.352 319.6V324.44C116.352 325.08 116.392 325.6 116.472 326H114.312C114.245 325.8 114.212 325.387 114.212 324.76C113.572 325.787 112.572 326.3 111.212 326.3C110.225 326.3 109.425 326.013 108.812 325.44C108.212 324.853 107.912 324.16 107.912 323.36ZM111.652 324.48C112.372 324.48 112.952 324.287 113.392 323.9C113.845 323.5 114.072 322.853 114.072 321.96V321.52L111.532 321.9C110.665 322.047 110.232 322.487 110.232 323.22C110.232 323.567 110.358 323.867 110.612 324.12C110.865 324.36 111.212 324.48 111.652 324.48ZM124.856 316.2V318.56C124.59 318.52 124.336 318.5 124.096 318.5C122.35 318.5 121.476 319.453 121.476 321.36V326H119.156V316.26H121.416V317.82C121.643 317.3 122.01 316.893 122.516 316.6C123.023 316.293 123.596 316.14 124.236 316.14C124.45 316.14 124.656 316.16 124.856 316.2ZM129.113 320.38V326H126.793V316.26H129.053V317.56C129.36 317.027 129.766 316.633 130.273 316.38C130.793 316.113 131.346 315.98 131.933 315.98C133.08 315.98 133.953 316.34 134.553 317.06C135.153 317.78 135.453 318.707 135.453 319.84V326H133.133V320.24C133.133 319.587 132.973 319.067 132.653 318.68C132.333 318.28 131.826 318.08 131.133 318.08C130.493 318.08 129.993 318.3 129.633 318.74C129.286 319.167 129.113 319.713 129.113 320.38ZM145.538 326H143.238V316.26H145.458V317.5C145.725 317.02 146.125 316.647 146.658 316.38C147.205 316.113 147.765 315.98 148.338 315.98C148.992 315.98 149.578 316.127 150.098 316.42C150.618 316.713 151.005 317.14 151.258 317.7C151.938 316.553 152.992 315.98 154.418 315.98C155.378 315.98 156.192 316.293 156.858 316.92C157.525 317.547 157.858 318.467 157.858 319.68V326H155.618V320.06C155.618 319.46 155.458 318.98 155.138 318.62C154.832 318.247 154.365 318.06 153.738 318.06C153.138 318.06 152.652 318.267 152.278 318.68C151.905 319.093 151.718 319.607 151.718 320.22V326H149.438V320.06C149.438 319.46 149.278 318.98 148.958 318.62C148.652 318.247 148.185 318.06 147.558 318.06C146.945 318.06 146.452 318.267 146.078 318.68C145.718 319.08 145.538 319.593 145.538 320.22V326ZM163.039 323.4C163.573 323.947 164.219 324.22 164.979 324.22C165.739 324.22 166.379 323.947 166.899 323.4C167.433 322.853 167.699 322.093 167.699 321.12C167.699 320.16 167.433 319.413 166.899 318.88C166.379 318.333 165.739 318.06 164.979 318.06C164.219 318.06 163.573 318.333 163.039 318.88C162.519 319.413 162.259 320.16 162.259 321.12C162.259 322.08 162.519 322.84 163.039 323.4ZM164.979 315.96C166.446 315.96 167.653 316.447 168.599 317.42C169.559 318.393 170.039 319.627 170.039 321.12C170.039 322.613 169.559 323.853 168.599 324.84C167.653 325.813 166.446 326.3 164.979 326.3C163.526 326.3 162.319 325.813 161.359 324.84C160.413 323.853 159.939 322.613 159.939 321.12C159.939 319.627 160.413 318.393 161.359 317.42C162.319 316.447 163.526 315.96 164.979 315.96ZM177.981 316.2V318.56C177.715 318.52 177.461 318.5 177.221 318.5C175.475 318.5 174.601 319.453 174.601 321.36V326H172.281V316.26H174.541V317.82C174.768 317.3 175.135 316.893 175.641 316.6C176.148 316.293 176.721 316.14 177.361 316.14C177.575 316.14 177.781 316.16 177.981 316.2ZM181.44 320.06H186.22C186.194 319.447 185.974 318.933 185.56 318.52C185.16 318.107 184.58 317.9 183.82 317.9C183.127 317.9 182.567 318.12 182.14 318.56C181.714 318.987 181.48 319.487 181.44 320.06ZM186.48 322.6L188.44 323.22C188.16 324.113 187.634 324.853 186.86 325.44C186.1 326.013 185.16 326.3 184.04 326.3C182.654 326.3 181.474 325.827 180.5 324.88C179.54 323.933 179.06 322.667 179.06 321.08C179.06 319.587 179.527 318.36 180.46 317.4C181.407 316.44 182.52 315.96 183.8 315.96C185.294 315.96 186.46 316.42 187.3 317.34C188.14 318.247 188.56 319.473 188.56 321.02C188.56 321.433 188.54 321.68 188.5 321.76H181.38C181.407 322.493 181.674 323.1 182.18 323.58C182.7 324.06 183.32 324.3 184.04 324.3C185.294 324.3 186.107 323.733 186.48 322.6Z" fill="white"/>
<path d="M205 320.697L198 314V327L205 320.697Z" fill="white"/>
<g clip-path="url(#clip0_1_87)">
<path d="M168.748 104.447H168.748V77.8153V77.8083L168.748 77.8083C168.811 75.5551 167.035 73.6776 164.782 73.6147L164.782 73.6147C164.689 73.6121 164.595 73.6127 164.501 73.6165L164.491 73.6169V73.6167H154.95H154.7V73.3667V71.5523V71.5458L154.701 71.5458C154.762 69.1956 152.906 67.2408 150.556 67.1797L168.748 104.447ZM168.748 104.447L168.748 104.454L168.748 104.447ZM139.556 67.1782H139.556C137.205 67.1774 135.299 69.0826 135.298 71.4337L139.556 67.1782ZM139.556 67.1782H150.444C150.481 67.1782 150.518 67.1787 150.556 67.1797L139.556 67.1782ZM135.3 71.5522H135.3V73.3667V73.6167H135.05H125.509H125.499L125.499 73.6165C123.246 73.5244 121.346 75.2753 121.253 77.5274L135.3 71.5522ZM135.3 71.5522L135.299 71.5451M135.3 71.5522L135.299 71.5451M135.299 71.5451C135.298 71.5085 135.298 71.4714 135.298 71.4338L135.299 71.5451ZM121.252 77.8153H121.252V104.447V104.454L121.252 104.454C121.191 106.804 123.046 108.759 125.396 108.82C125.397 108.82 125.397 108.82 125.397 108.82L125.39 109.07L121.252 77.8153ZM121.252 77.8153L121.252 77.8083M121.252 77.8153L121.252 77.8083M121.252 77.8083C121.249 77.7147 121.25 77.6211 121.253 77.5275L121.252 77.8083ZM139.423 69.0231L139.423 69.0231C139.467 69.0208 139.512 69.0195 139.557 69.0196M139.423 69.0231L150.444 69.2696V69.0196H150.443C150.443 69.0196 150.443 69.0196 150.443 69.0196L139.557 69.0196M139.423 69.0231C138.093 69.0951 137.073 70.2297 137.141 71.5589L139.423 69.0231ZM139.557 69.0196H139.556V69.2696L139.557 69.0196C139.557 69.0196 139.557 69.0196 139.557 69.0196ZM164.625 106.977L164.625 106.977C164.581 106.979 164.536 106.98 164.491 106.98M164.625 106.977L164.491 106.73M164.625 106.977C165.955 106.905 166.975 105.77 166.907 104.441V96.7798V96.3181L166.52 96.5705C165.923 96.9606 165.217 97.1514 164.504 97.1155L164.504 97.1152H164.491H152.609H152.359V97.3652V100.74C152.262 101.318 151.782 101.756 151.196 101.798H138.804C138.218 101.756 137.738 101.318 137.641 100.74V97.3652V97.1152H137.391H125.509V97.1149L125.496 97.1155C124.783 97.1513 124.077 96.9605 123.48 96.5705L123.093 96.3182V96.7798V104.441C123.091 104.483 123.09 104.526 123.09 104.568M164.625 106.977L125.509 106.73M164.491 106.98L164.491 106.73M164.491 106.98H164.491V106.73M164.491 106.98H125.509M164.491 106.73H125.509M125.509 106.98L125.509 106.73M125.509 106.98H125.509V106.73M125.509 106.98C124.175 106.982 123.092 105.902 123.09 104.568M123.09 104.568C123.09 104.568 123.09 104.568 123.09 104.568L123.34 104.568L123.09 104.569C123.09 104.568 123.09 104.568 123.09 104.568ZM164.625 95.2703L164.625 95.2703C164.581 95.2727 164.536 95.2739 164.491 95.2738M164.625 95.2703L164.491 95.0238M164.625 95.2703C165.955 95.1983 166.975 94.0637 166.907 92.7344M164.625 95.2703L166.907 92.7344M164.491 95.2738L164.491 95.0238M164.491 95.2738H164.491V95.0238M164.491 95.2738H152.609H152.359V95.0238V92.507C152.359 92.2983 152.24 92.1192 152.016 91.9803C151.79 91.8399 151.486 91.7619 151.204 91.7619H138.796C138.514 91.7619 138.21 91.8399 137.984 91.9803C137.76 92.1192 137.641 92.2983 137.641 92.507V95.0238V95.2738H137.391H125.509M164.491 95.0238H152.859H152.609V94.7738V92.507C152.609 91.8631 151.848 91.5119 151.204 91.5119H138.796C138.152 91.5119 137.391 91.8631 137.391 92.507V94.7738V95.0238H137.141H125.509M125.509 95.2738L125.509 95.0238M125.509 95.2738H125.509V95.0238M125.509 95.2738C124.175 95.2758 123.092 94.1959 123.09 92.8618M125.509 95.0238C124.313 95.0256 123.342 94.0574 123.34 92.8613M123.34 92.8613L123.09 92.8617C123.09 92.8617 123.09 92.8618 123.09 92.8618M123.34 92.8613C123.34 92.8212 123.341 92.7811 123.343 92.7411M123.34 92.8613L123.343 92.7411M123.34 92.8613L123.09 92.862C123.09 92.862 123.09 92.8619 123.09 92.8618M123.34 92.8613L123.09 92.8618M123.343 92.7411V77.8153V92.7411ZM123.093 77.8229C123.02 76.5916 123.956 75.5321 125.188 75.4545L125.188 75.4545C125.299 75.4476 125.409 75.4487 125.52 75.4582H164.48C165.708 75.3533 166.791 76.2598 166.902 77.488M123.093 77.8229L166.657 77.8153M123.093 77.8229V92.7346V77.8229ZM166.902 77.488L166.653 77.5106L166.902 77.488C166.902 77.488 166.902 77.488 166.902 77.488ZM166.902 77.488C166.912 77.5994 166.914 77.7115 166.907 77.8229M166.907 77.8229V77.8153H166.657M166.907 77.8229V92.7344M166.907 77.8229C166.907 77.8256 166.907 77.8283 166.906 77.831L166.657 77.8153M166.657 77.8153L166.907 92.7344M139.482 99.7064V99.9564H139.732H150.268H150.518V99.7064V93.8532V93.6032H150.268H139.732H139.482V93.8532V99.7064Z" fill="white" stroke="white" stroke-width="0.5"/>
</g>
<path d="M60.6223 240V230.512H64.0143V229.328H55.9183V230.512H59.2943V240H60.6223ZM72.1633 240V234.544C72.1633 232.864 71.3153 232.08 69.6993 232.08C68.5312 232.08 67.4753 232.752 66.9313 233.392V229.328H65.7313V240H66.9313V234.352C67.3953 233.728 68.2913 233.152 69.2193 233.152C70.2593 233.152 70.9633 233.552 70.9633 234.912V240H72.1633ZM78.0474 240.192C79.3114 240.192 80.3514 239.776 81.1194 239.008L80.5434 238.224C79.9354 238.848 79.0394 239.2 78.1594 239.2C76.4954 239.2 75.4714 237.984 75.3754 236.528H81.6314V236.224C81.6314 233.904 80.2554 232.08 77.9194 232.08C75.7114 232.08 74.1114 233.888 74.1114 236.128C74.1114 238.544 75.7594 240.192 78.0474 240.192ZM80.4474 235.648H75.3754C75.4394 234.464 76.2554 233.072 77.9034 233.072C79.6634 233.072 80.4314 234.496 80.4474 235.648ZM98.228 240V234.416C98.228 232.864 97.476 232.08 96.068 232.08C94.948 232.08 93.908 232.816 93.476 233.52C93.252 232.72 92.58 232.08 91.396 232.08C90.26 232.08 89.22 232.896 88.9 233.392V232.272H87.7V240H88.9V234.352C89.316 233.728 90.148 233.152 90.932 233.152C91.94 233.152 92.356 233.776 92.356 234.752V240H93.556V234.336C93.956 233.728 94.804 233.152 95.604 233.152C96.596 233.152 97.028 233.776 97.028 234.752V240H98.228ZM106.654 240V234.688C106.654 232.816 105.294 232.08 103.662 232.08C102.398 232.08 101.406 232.496 100.574 233.36L101.134 234.192C101.822 233.456 102.574 233.12 103.502 233.12C104.622 233.12 105.454 233.712 105.454 234.752V236.144C104.83 235.424 103.95 235.088 102.894 235.088C101.582 235.088 100.19 235.904 100.19 237.632C100.19 239.312 101.582 240.192 102.894 240.192C103.934 240.192 104.814 239.824 105.454 239.12V240H106.654ZM103.326 239.328C102.206 239.328 101.422 238.624 101.422 237.648C101.422 236.656 102.206 235.952 103.326 235.952C104.174 235.952 104.99 236.272 105.454 236.912V238.368C104.99 239.008 104.174 239.328 103.326 239.328ZM110.259 240V234.528C110.611 233.904 111.619 233.296 112.355 233.296C112.547 233.296 112.691 233.312 112.835 233.344V232.112C111.779 232.112 110.883 232.704 110.259 233.52V232.272H109.059V240H110.259ZM121.141 240L117.701 235.776L121.125 232.272H119.605L115.541 236.384V229.328H114.341V240H115.541V237.792L116.821 236.528L119.605 240H121.141ZM126.001 240.192C127.265 240.192 128.305 239.776 129.073 239.008L128.497 238.224C127.889 238.848 126.993 239.2 126.113 239.2C124.449 239.2 123.424 237.984 123.329 236.528H129.585V236.224C129.585 233.904 128.209 232.08 125.873 232.08C123.664 232.08 122.065 233.888 122.065 236.128C122.065 238.544 123.713 240.192 126.001 240.192ZM128.401 235.648H123.329C123.393 234.464 124.209 233.072 125.857 233.072C127.617 233.072 128.385 234.496 128.401 235.648ZM133.48 240.192C134.184 240.192 134.616 239.984 134.92 239.696L134.568 238.8C134.408 238.976 134.088 239.12 133.752 239.12C133.224 239.12 132.968 238.704 132.968 238.128V233.328H134.536V232.272H132.968V230.16H131.768V232.272H130.488V233.328H131.768V238.384C131.768 239.536 132.344 240.192 133.48 240.192ZM136.823 231.168C137.271 231.168 137.639 230.816 137.639 230.368C137.639 229.92 137.271 229.552 136.823 229.552C136.391 229.552 136.023 229.92 136.023 230.368C136.023 230.816 136.391 231.168 136.823 231.168ZM137.431 240V232.272H136.231V240H137.431ZM146.241 240V234.576C146.241 232.896 145.393 232.08 143.777 232.08C142.625 232.08 141.569 232.752 141.025 233.392V232.272H139.825V240H141.025V234.352C141.473 233.728 142.369 233.152 143.313 233.152C144.353 233.152 145.041 233.584 145.041 234.944V240H146.241ZM151.742 243.136C153.63 243.136 155.422 242.336 155.422 239.776V232.272H154.222V233.44C153.598 232.592 152.67 232.08 151.63 232.08C149.598 232.08 148.19 233.616 148.19 236.096C148.19 238.592 149.614 240.096 151.63 240.096C152.718 240.096 153.662 239.504 154.222 238.72V239.824C154.222 241.52 153.022 242.144 151.742 242.144C150.638 242.144 149.87 241.856 149.23 241.088L148.622 241.984C149.534 242.88 150.43 243.136 151.742 243.136ZM151.918 239.04C150.366 239.04 149.438 237.792 149.438 236.096C149.438 234.384 150.366 233.152 151.918 233.152C152.878 233.152 153.806 233.728 154.222 234.4V237.776C153.806 238.448 152.878 239.04 151.918 239.04ZM165.758 240.192C167.79 240.192 169.198 238.624 169.198 236.128C169.198 233.616 167.79 232.08 165.758 232.08C164.67 232.08 163.71 232.64 163.15 233.424V232.272H161.95V242.944H163.15V238.832C163.774 239.696 164.702 240.192 165.758 240.192ZM165.454 239.12C164.51 239.12 163.566 238.544 163.15 237.872V234.384C163.566 233.712 164.51 233.152 165.454 233.152C167.006 233.152 167.934 234.416 167.934 236.128C167.934 237.84 167.006 239.12 165.454 239.12ZM172.306 240V234.528C172.658 233.904 173.666 233.296 174.402 233.296C174.594 233.296 174.738 233.312 174.882 233.344V232.112C173.826 232.112 172.93 232.704 172.306 233.52V232.272H171.106V240H172.306ZM182.42 240V234.688C182.42 232.816 181.06 232.08 179.428 232.08C178.164 232.08 177.172 232.496 176.34 233.36L176.9 234.192C177.588 233.456 178.34 233.12 179.268 233.12C180.388 233.12 181.22 233.712 181.22 234.752V236.144C180.596 235.424 179.716 235.088 178.66 235.088C177.348 235.088 175.956 235.904 175.956 237.632C175.956 239.312 177.348 240.192 178.66 240.192C179.7 240.192 180.58 239.824 181.22 239.12V240H182.42ZM179.092 239.328C177.972 239.328 177.188 238.624 177.188 237.648C177.188 236.656 177.972 235.952 179.092 235.952C179.94 235.952 180.756 236.272 181.22 236.912V238.368C180.756 239.008 179.94 239.328 179.092 239.328ZM188.233 240.192C189.641 240.192 190.473 239.616 191.065 238.848L190.265 238.112C189.753 238.8 189.097 239.12 188.297 239.12C186.649 239.12 185.625 237.84 185.625 236.128C185.625 234.416 186.649 233.152 188.297 233.152C189.097 233.152 189.753 233.456 190.265 234.16L191.065 233.424C190.473 232.656 189.641 232.08 188.233 232.08C185.929 232.08 184.377 233.84 184.377 236.128C184.377 238.432 185.929 240.192 188.233 240.192ZM194.699 240.192C195.403 240.192 195.835 239.984 196.139 239.696L195.787 238.8C195.627 238.976 195.307 239.12 194.971 239.12C194.443 239.12 194.187 238.704 194.187 238.128V233.328H195.755V232.272H194.187V230.16H192.987V232.272H191.707V233.328H192.987V238.384C192.987 239.536 193.563 240.192 194.699 240.192ZM198.042 231.168C198.49 231.168 198.858 230.816 198.858 230.368C198.858 229.92 198.49 229.552 198.042 229.552C197.61 229.552 197.242 229.92 197.242 230.368C197.242 230.816 197.61 231.168 198.042 231.168ZM198.65 240V232.272H197.45V240H198.65ZM204.452 240.192C205.86 240.192 206.692 239.616 207.284 238.848L206.484 238.112C205.972 238.8 205.316 239.12 204.516 239.12C202.868 239.12 201.844 237.84 201.844 236.128C201.844 234.416 202.868 233.152 204.516 233.152C205.316 233.152 205.972 233.456 206.484 234.16L207.284 233.424C206.692 232.656 205.86 232.08 204.452 232.08C202.148 232.08 200.596 233.84 200.596 236.128C200.596 238.432 202.148 240.192 204.452 240.192ZM212.454 240.192C213.718 240.192 214.758 239.776 215.526 239.008L214.95 238.224C214.342 238.848 213.446 239.2 212.566 239.2C210.902 239.2 209.878 237.984 209.782 236.528H216.038V236.224C216.038 233.904 214.662 232.08 212.326 232.08C210.118 232.08 208.518 233.888 208.518 236.128C208.518 238.544 210.166 240.192 212.454 240.192ZM214.854 235.648H209.782C209.846 234.464 210.662 233.072 212.31 233.072C214.07 233.072 214.838 234.496 214.854 235.648ZM225.482 240.192C227.834 240.192 229.306 238.368 229.306 236.128C229.306 233.888 227.834 232.08 225.482 232.08C223.13 232.08 221.658 233.888 221.658 236.128C221.658 238.368 223.13 240.192 225.482 240.192ZM225.482 239.12C223.834 239.12 222.906 237.712 222.906 236.128C222.906 234.56 223.834 233.152 225.482 233.152C227.13 233.152 228.042 234.56 228.042 236.128C228.042 237.712 227.13 239.12 225.482 239.12ZM232.799 240V233.328H234.367V232.272H232.799V231.68C232.799 230.704 233.231 230.16 234.015 230.16C234.415 230.16 234.719 230.32 234.975 230.544L235.471 229.76C234.991 229.312 234.447 229.168 233.839 229.168C232.463 229.168 231.599 230.096 231.599 231.68V232.272H230.319V233.328H231.599V240H232.799ZM54.983 264.192C56.391 264.192 57.223 263.616 57.815 262.848L57.015 262.112C56.503 262.8 55.847 263.12 55.047 263.12C53.399 263.12 52.375 261.84 52.375 260.128C52.375 258.416 53.399 257.152 55.047 257.152C55.847 257.152 56.503 257.456 57.015 258.16L57.815 257.424C57.223 256.656 56.391 256.08 54.983 256.08C52.679 256.08 51.127 257.84 51.127 260.128C51.127 262.432 52.679 264.192 54.983 264.192ZM60.6969 264V258.528C61.0489 257.904 62.0569 257.296 62.7929 257.296C62.9849 257.296 63.1289 257.312 63.2729 257.344V256.112C62.2169 256.112 61.3209 256.704 60.6969 257.52V256.272H59.4969V264H60.6969ZM68.2661 264.192C69.5301 264.192 70.5701 263.776 71.3381 263.008L70.7621 262.224C70.1541 262.848 69.2581 263.2 68.3781 263.2C66.7141 263.2 65.6901 261.984 65.5941 260.528H71.8501V260.224C71.8501 257.904 70.4741 256.08 68.1381 256.08C65.9301 256.08 64.3301 257.888 64.3301 260.128C64.3301 262.544 65.9781 264.192 68.2661 264.192ZM70.6661 259.648H65.5941C65.6581 258.464 66.4741 257.072 68.1221 257.072C69.8821 257.072 70.6501 258.496 70.6661 259.648ZM79.8258 264V258.688C79.8258 256.816 78.4658 256.08 76.8338 256.08C75.5698 256.08 74.5778 256.496 73.7458 257.36L74.3058 258.192C74.9938 257.456 75.7458 257.12 76.6738 257.12C77.7938 257.12 78.6258 257.712 78.6258 258.752V260.144C78.0018 259.424 77.1218 259.088 76.0658 259.088C74.7538 259.088 73.3618 259.904 73.3618 261.632C73.3618 263.312 74.7538 264.192 76.0658 264.192C77.1058 264.192 77.9858 263.824 78.6258 263.12V264H79.8258ZM76.4978 263.328C75.3778 263.328 74.5938 262.624 74.5938 261.648C74.5938 260.656 75.3778 259.952 76.4978 259.952C77.3458 259.952 78.1618 260.272 78.6258 260.912V262.368C78.1618 263.008 77.3458 263.328 76.4978 263.328ZM84.1833 264.192C84.8873 264.192 85.3193 263.984 85.6233 263.696L85.2713 262.8C85.1113 262.976 84.7913 263.12 84.4553 263.12C83.9273 263.12 83.6713 262.704 83.6713 262.128V257.328H85.2393V256.272H83.6713V254.16H82.4713V256.272H81.1913V257.328H82.4713V262.384C82.4713 263.536 83.0473 264.192 84.1833 264.192ZM87.5264 255.168C87.9744 255.168 88.3424 254.816 88.3424 254.368C88.3424 253.92 87.9744 253.552 87.5264 253.552C87.0944 253.552 86.7264 253.92 86.7264 254.368C86.7264 254.816 87.0944 255.168 87.5264 255.168ZM88.1344 264V256.272H86.9344V264H88.1344ZM96.9441 264V258.576C96.9441 256.896 96.0961 256.08 94.4801 256.08C93.3281 256.08 92.2721 256.752 91.7281 257.392V256.272H90.5281V264H91.7281V258.352C92.1761 257.728 93.0721 257.152 94.0161 257.152C95.0561 257.152 95.7441 257.584 95.7441 258.944V264H96.9441ZM102.445 267.136C104.333 267.136 106.125 266.336 106.125 263.776V256.272H104.925V257.44C104.301 256.592 103.373 256.08 102.333 256.08C100.301 256.08 98.8926 257.616 98.8926 260.096C98.8926 262.592 100.317 264.096 102.333 264.096C103.421 264.096 104.365 263.504 104.925 262.72V263.824C104.925 265.52 103.725 266.144 102.445 266.144C101.341 266.144 100.573 265.856 99.9326 265.088L99.3246 265.984C100.237 266.88 101.133 267.136 102.445 267.136ZM102.621 263.04C101.069 263.04 100.141 261.792 100.141 260.096C100.141 258.384 101.069 257.152 102.621 257.152C103.581 257.152 104.509 257.728 104.925 258.4V261.776C104.509 262.448 103.581 263.04 102.621 263.04ZM118.685 264V258.688C118.685 256.816 117.325 256.08 115.693 256.08C114.429 256.08 113.437 256.496 112.605 257.36L113.165 258.192C113.853 257.456 114.605 257.12 115.533 257.12C116.653 257.12 117.485 257.712 117.485 258.752V260.144C116.861 259.424 115.981 259.088 114.925 259.088C113.613 259.088 112.221 259.904 112.221 261.632C112.221 263.312 113.613 264.192 114.925 264.192C115.965 264.192 116.845 263.824 117.485 263.12V264H118.685ZM115.357 263.328C114.237 263.328 113.453 262.624 113.453 261.648C113.453 260.656 114.237 259.952 115.357 259.952C116.205 259.952 117.021 260.272 117.485 260.912V262.368C117.021 263.008 116.205 263.328 115.357 263.328ZM131.632 264V258.576C131.632 256.896 130.784 256.08 129.168 256.08C128.016 256.08 126.96 256.752 126.416 257.392V256.272H125.216V264H126.416V258.352C126.864 257.728 127.76 257.152 128.704 257.152C129.744 257.152 130.432 257.584 130.432 258.944V264H131.632ZM140.06 264V258.688C140.06 256.816 138.7 256.08 137.068 256.08C135.804 256.08 134.812 256.496 133.98 257.36L134.54 258.192C135.228 257.456 135.98 257.12 136.908 257.12C138.028 257.12 138.86 257.712 138.86 258.752V260.144C138.236 259.424 137.356 259.088 136.3 259.088C134.988 259.088 133.596 259.904 133.596 261.632C133.596 263.312 134.988 264.192 136.3 264.192C137.34 264.192 138.22 263.824 138.86 263.12V264H140.06ZM136.732 263.328C135.612 263.328 134.828 262.624 134.828 261.648C134.828 260.656 135.612 259.952 136.732 259.952C137.58 259.952 138.396 260.272 138.86 260.912V262.368C138.396 263.008 137.58 263.328 136.732 263.328ZM152.994 264V258.416C152.994 256.864 152.242 256.08 150.834 256.08C149.714 256.08 148.674 256.816 148.242 257.52C148.018 256.72 147.346 256.08 146.162 256.08C145.026 256.08 143.986 256.896 143.666 257.392V256.272H142.466V264H143.666V258.352C144.082 257.728 144.914 257.152 145.698 257.152C146.706 257.152 147.122 257.776 147.122 258.752V264H148.322V258.336C148.722 257.728 149.57 257.152 150.37 257.152C151.362 257.152 151.794 257.776 151.794 258.752V264H152.994ZM158.876 264.192C160.14 264.192 161.18 263.776 161.948 263.008L161.372 262.224C160.764 262.848 159.868 263.2 158.988 263.2C157.324 263.2 156.299 261.984 156.204 260.528H162.46V260.224C162.46 257.904 161.084 256.08 158.748 256.08C156.539 256.08 154.94 257.888 154.94 260.128C154.94 262.544 156.588 264.192 158.876 264.192ZM161.276 259.648H156.204C156.268 258.464 157.084 257.072 158.732 257.072C160.492 257.072 161.26 258.496 161.276 259.648ZM165.91 263.616C165.91 262.848 165.43 262.4 164.902 262.4C164.422 262.4 164.054 262.8 164.054 263.264C164.054 263.744 164.374 264.08 164.822 264.08C164.902 264.08 165.014 264.064 165.046 264.048C164.982 264.576 164.518 265.2 164.006 265.536L164.598 266.032C165.334 265.504 165.91 264.592 165.91 263.616ZM174.554 264.192C176.554 264.192 177.594 263.152 177.594 261.856C177.594 258.848 172.81 259.968 172.81 258.272C172.81 257.584 173.466 257.056 174.522 257.056C175.514 257.056 176.362 257.472 176.826 258.032L177.386 257.2C176.762 256.576 175.834 256.08 174.522 256.08C172.682 256.08 171.642 257.104 171.642 258.304C171.642 261.168 176.426 260.016 176.426 261.888C176.426 262.656 175.786 263.216 174.602 263.216C173.546 263.216 172.57 262.704 172.058 262.112L171.434 262.976C172.218 263.808 173.29 264.192 174.554 264.192ZM179.112 267.024C179.336 267.088 179.736 267.136 179.992 267.136C181.016 267.12 181.8 266.688 182.264 265.568L186.136 256.272H184.824L182.264 262.608L179.688 256.272H178.392L181.624 264.08L181.112 265.248C180.84 265.888 180.488 266.064 179.96 266.064C179.768 266.064 179.48 266.016 179.304 265.936L179.112 267.024ZM197.916 264V258.416C197.916 256.864 197.164 256.08 195.756 256.08C194.635 256.08 193.596 256.816 193.164 257.52C192.94 256.72 192.268 256.08 191.084 256.08C189.948 256.08 188.908 256.896 188.588 257.392V256.272H187.388V264H188.588V258.352C189.004 257.728 189.836 257.152 190.62 257.152C191.628 257.152 192.044 257.776 192.044 258.752V264H193.244V258.336C193.644 257.728 194.492 257.152 195.292 257.152C196.284 257.152 196.716 257.776 196.716 258.752V264H197.916ZM201.509 261.904V258.4C201.925 257.728 202.869 257.152 203.813 257.152C205.381 257.152 206.309 258.432 206.309 260.144C206.309 261.856 205.381 263.12 203.813 263.12C202.869 263.12 201.925 262.576 201.509 261.904ZM201.509 264V262.848C202.085 263.632 203.029 264.192 204.117 264.192C206.133 264.192 207.557 262.656 207.557 260.144C207.557 257.68 206.133 256.08 204.117 256.08C203.061 256.08 202.133 256.592 201.509 257.44V253.328H200.309V264H201.509ZM212.889 264.192C215.241 264.192 216.713 262.368 216.713 260.128C216.713 257.888 215.241 256.08 212.889 256.08C210.537 256.08 209.065 257.888 209.065 260.128C209.065 262.368 210.537 264.192 212.889 264.192ZM212.889 263.12C211.241 263.12 210.312 261.712 210.312 260.128C210.312 258.56 211.241 257.152 212.889 257.152C214.537 257.152 215.449 258.56 215.449 260.128C215.449 261.712 214.537 263.12 212.889 263.12ZM219.869 264V253.328H218.669V264H219.869ZM229.764 264.192C232.116 264.192 233.588 262.368 233.588 260.128C233.588 257.888 232.116 256.08 229.764 256.08C227.412 256.08 225.94 257.888 225.94 260.128C225.94 262.368 227.412 264.192 229.764 264.192ZM229.764 263.12C228.116 263.12 227.188 261.712 227.188 260.128C227.188 258.56 228.116 257.152 229.764 257.152C231.412 257.152 232.324 258.56 232.324 260.128C232.324 261.712 231.412 263.12 229.764 263.12ZM236.744 264V258.528C237.096 257.904 238.104 257.296 238.84 257.296C239.032 257.296 239.176 257.312 239.32 257.344V256.112C238.264 256.112 237.368 256.704 236.744 257.52V256.272H235.544V264H236.744Z" fill="white"/>
</g>
<defs>
<filter id="filter0_d_1_87" x="0" y="0" width="310" height="384" filterUnits="userSpaceOnUse" color-interpolation-filters="sRGB">
<feFlood flood-opacity="0" result="BackgroundImageFix"/>
<feColorMatrix in="SourceAlpha" type="matrix" values="0 0 0 0 0 0 0 0 0 0 0 0 0 0 0 0 0 0 127 0" result="hardAlpha"/>
<feOffset dx="10" dy="10"/>
<feGaussianBlur stdDeviation="10"/>
<feColorMatrix type="matrix" values="0 0 0 0 0.980392 0 0 0 0 0.552941 0 0 0 0 0.721569 0 0 0 0.2 0"/>
<feBlend mode="normal" in2="BackgroundImageFix" result="effect1_dropShadow_1_87"/>
<feBlend mode="normal" in="SourceGraphic" in2="effect1_dropShadow_1_87" result="shape"/>
</filter>
<clipPath id="clip0_1_87">
<rect width="48" height="48" fill="white" transform="translate(121 64)"/>
</clipPath>
</defs>
</svg>
