<svg width="218" height="94" viewBox="0 0 218 94" fill="none" xmlns="http://www.w3.org/2000/svg">
<g filter="url(#filter0_d_1_517)">
<rect x="10" y="10" width="178" height="54" rx="4" fill="#F78CB6"/>
<path d="M37.84 33.04L36.08 33.66C35.9867 33.0467 35.6867 32.4933 35.18 32C34.6733 31.4933 33.9733 31.24 33.08 31.24C32.2933 31.24 31.64 31.4667 31.12 31.92C30.6 32.3733 30.34 32.9333 30.34 33.6C30.34 34.12 30.4933 34.56 30.8 34.92C31.12 35.28 31.5733 35.5267 32.16 35.66L34.28 36.12C35.4533 36.3733 36.36 36.8533 37 37.56C37.64 38.2533 37.96 39.1 37.96 40.1C37.96 41.2467 37.5067 42.2333 36.6 43.06C35.6933 43.8867 34.5133 44.3 33.06 44.3C31.4733 44.3 30.2267 43.8867 29.32 43.06C28.4267 42.22 27.9067 41.2267 27.76 40.08L29.64 39.48C29.72 40.3333 30.0533 41.0533 30.64 41.64C31.2267 42.2267 32.0267 42.52 33.04 42.52C33.9733 42.52 34.6933 42.3067 35.2 41.88C35.7067 41.4533 35.96 40.9133 35.96 40.26C35.96 39.7267 35.78 39.2667 35.42 38.88C35.06 38.48 34.5333 38.2067 33.84 38.06L31.82 37.62C30.7667 37.3933 29.9267 36.9467 29.3 36.28C28.6733 35.6133 28.36 34.7667 28.36 33.74C28.36 32.62 28.8133 31.64 29.72 30.8C30.64 29.9467 31.7467 29.52 33.04 29.52C34.4933 29.52 35.6067 29.8733 36.38 30.58C37.1533 31.2867 37.64 32.1067 37.84 33.04ZM41.8802 38.2H47.1402C47.1135 37.48 46.8735 36.8933 46.4202 36.44C45.9668 35.9733 45.3268 35.74 44.5002 35.74C43.7535 35.74 43.1402 35.9867 42.6602 36.48C42.1802 36.96 41.9202 37.5333 41.8802 38.2ZM47.4202 40.7L49.0402 41.26C48.7602 42.1533 48.2402 42.8867 47.4802 43.46C46.7202 44.02 45.8002 44.3 44.7202 44.3C43.3735 44.3 42.2268 43.84 41.2802 42.92C40.3468 41.9867 39.8802 40.7333 39.8802 39.16C39.8802 37.6933 40.3335 36.48 41.2402 35.52C42.1468 34.56 43.2268 34.08 44.4802 34.08C45.9335 34.08 47.0668 34.54 47.8802 35.46C48.6935 36.3667 49.1002 37.5867 49.1002 39.12C49.1002 39.36 49.0868 39.56 49.0602 39.72H41.8202C41.8335 40.5733 42.1135 41.2733 42.6602 41.82C43.2202 42.3667 43.9068 42.64 44.7202 42.64C46.0935 42.64 46.9935 41.9933 47.4202 40.7ZM53.78 38.44V44H51.9V34.38H53.74V35.76C54.38 34.6533 55.3667 34.1 56.7 34.1C57.8067 34.1 58.6533 34.4533 59.24 35.16C59.84 35.8667 60.14 36.78 60.14 37.9V44H58.26V38.22C58.26 36.6067 57.5133 35.8 56.02 35.8C55.3133 35.8 54.76 36.0533 54.36 36.56C53.9733 37.0533 53.78 37.68 53.78 38.44ZM64.6505 39.16C64.6505 40.1733 64.8971 41 65.3905 41.64C65.8971 42.28 66.5905 42.6 67.4705 42.6C68.3105 42.6 68.9838 42.2733 69.4905 41.62C69.9971 40.9667 70.2505 40.1333 70.2505 39.12C70.2505 38.12 70.0038 37.3133 69.5105 36.7C69.0171 36.0867 68.3438 35.78 67.4905 35.78C66.6371 35.78 65.9505 36.0933 65.4305 36.72C64.9105 37.3467 64.6505 38.16 64.6505 39.16ZM70.2705 42.7V42.54C70.0171 43.0333 69.6305 43.4467 69.1105 43.78C68.6038 44.1 67.9971 44.26 67.2905 44.26C65.9171 44.26 64.8105 43.78 63.9705 42.82C63.1438 41.8467 62.7305 40.6267 62.7305 39.16C62.7305 37.76 63.1571 36.5733 64.0105 35.6C64.8638 34.6133 65.9571 34.12 67.2905 34.12C68.0771 34.12 68.7171 34.28 69.2105 34.6C69.7038 34.9067 70.0438 35.2867 70.2305 35.74V29.52H72.0905V42.22C72.0905 42.8733 72.1238 43.4667 72.1905 44H70.3705C70.3038 43.6267 70.2705 43.1933 70.2705 42.7ZM82.9683 38.44V44H81.0883V34.38H82.9283V35.76C83.5683 34.6533 84.5549 34.1 85.8883 34.1C86.9949 34.1 87.8416 34.4533 88.4283 35.16C89.0283 35.8667 89.3283 36.78 89.3283 37.9V44H87.4483V38.22C87.4483 36.6067 86.7016 35.8 85.2083 35.8C84.5016 35.8 83.9483 36.0533 83.5483 36.56C83.1616 37.0533 82.9683 37.68 82.9683 38.44ZM94.6988 41.72C95.2854 42.32 95.9988 42.62 96.8388 42.62C97.6788 42.62 98.3854 42.32 98.9588 41.72C99.5454 41.1067 99.8388 40.26 99.8388 39.18C99.8388 38.1133 99.5454 37.28 98.9588 36.68C98.3854 36.0667 97.6788 35.76 96.8388 35.76C95.9988 35.76 95.2854 36.0667 94.6988 36.68C94.1254 37.28 93.8388 38.1133 93.8388 39.18C93.8388 40.26 94.1254 41.1067 94.6988 41.72ZM93.2988 35.54C94.2321 34.5667 95.4121 34.08 96.8388 34.08C98.2654 34.08 99.4388 34.5667 100.359 35.54C101.292 36.5 101.759 37.7133 101.759 39.18C101.759 40.66 101.299 41.8867 100.379 42.86C99.4588 43.82 98.2788 44.3 96.8388 44.3C95.3988 44.3 94.2188 43.82 93.2988 42.86C92.3788 41.8867 91.9188 40.66 91.9188 39.18C91.9188 37.7133 92.3788 36.5 93.2988 35.54ZM109.789 34.38H111.729L114.229 41.62L116.349 34.38H118.329L115.209 44H113.269L110.709 36.68L108.209 44H106.229L103.069 34.38H105.129L107.289 41.62L109.789 34.38Z" fill="white"/>
<rect x="141.75" y="23.75" width="26.5" height="26.5" rx="1.25" fill="#FFC1DA" fill-opacity="0.28" stroke="white" stroke-width="1.5"/>
<path d="M131 35.4419C130.448 35.4419 130 35.8896 130 36.4419C130 36.9941 130.448 37.4419 131 37.4419V35.4419ZM156.628 36.4419L157.314 37.1691C157.521 36.974 157.635 36.7 157.628 36.4157C157.62 36.1314 157.492 35.8638 157.275 35.6797L156.628 36.4419ZM149.535 41.7611C149.133 42.1402 149.115 42.7731 149.494 43.1747C149.873 43.5764 150.506 43.5947 150.907 43.2156L149.535 41.7611ZM150.868 30.2378C150.447 29.8803 149.816 29.9317 149.459 30.3526C149.101 30.7736 149.153 31.4046 149.574 31.7622L150.868 30.2378ZM131 37.4419H156.628V35.4419H131V37.4419ZM155.942 35.7146L149.535 41.7611L150.907 43.2156L157.314 37.1691L155.942 35.7146ZM157.275 35.6797L150.868 30.2378L149.574 31.7622L155.981 37.204L157.275 35.6797Z" fill="white"/>
</g>
<defs>
<filter id="filter0_d_1_517" x="0" y="0" width="218" height="94" filterUnits="userSpaceOnUse" color-interpolation-filters="sRGB">
<feFlood flood-opacity="0" result="BackgroundImageFix"/>
<feColorMatrix in="SourceAlpha" type="matrix" values="0 0 0 0 0 0 0 0 0 0 0 0 0 0 0 0 0 0 127 0" result="hardAlpha"/>
<feOffset dx="10" dy="10"/>
<feGaussianBlur stdDeviation="10"/>
<feColorMatrix type="matrix" values="0 0 0 0 0.980392 0 0 0 0 0.552941 0 0 0 0 0.721569 0 0 0 0.2 0"/>
<feBlend mode="normal" in2="BackgroundImageFix" result="effect1_dropShadow_1_517"/>
<feBlend mode="normal" in="SourceGraphic" in2="effect1_dropShadow_1_517" result="shape"/>
</filter>
</defs>
</svg>
