<svg width="256" height="106" viewBox="0 0 256 106" fill="none" xmlns="http://www.w3.org/2000/svg">
<g filter="url(#filter0_d_1_64)">
<rect x="10" y="10" width="216" height="66" rx="4" fill="#F78BB6"/>
<path d="M46.28 50H44.34L44.16 48.2C43.8133 48.7867 43.2667 49.2867 42.52 49.7C41.7733 50.1 40.8733 50.3 39.82 50.3C37.8867 50.3 36.24 49.6333 34.88 48.3C33.52 46.9533 32.84 45.1533 32.84 42.9C32.84 41.4067 33.18 40.0867 33.86 38.94C34.5533 37.7933 35.4333 36.94 36.5 36.38C37.5667 35.8067 38.7267 35.52 39.98 35.52C41.62 35.52 42.9933 35.9267 44.1 36.74C45.22 37.5533 45.98 38.5867 46.38 39.84L44.12 40.7C43.8667 39.8467 43.38 39.14 42.66 38.58C41.94 38.02 41.0467 37.74 39.98 37.74C38.7133 37.74 37.6133 38.1867 36.68 39.08C35.7467 39.9733 35.28 41.2467 35.28 42.9C35.28 44.54 35.7333 45.82 36.64 46.74C37.5467 47.6467 38.6533 48.1 39.96 48.1C41.24 48.1 42.2133 47.7667 42.88 47.1C43.56 46.42 43.94 45.6933 44.02 44.92H39.34V42.82H46.28V50ZM51.0083 44.06H55.7883C55.7616 43.4467 55.5416 42.9333 55.1283 42.52C54.7283 42.1067 54.1483 41.9 53.3883 41.9C52.6949 41.9 52.1349 42.12 51.7083 42.56C51.2816 42.9867 51.0483 43.4867 51.0083 44.06ZM56.0483 46.6L58.0083 47.22C57.7283 48.1133 57.2016 48.8533 56.4283 49.44C55.6683 50.0133 54.7283 50.3 53.6083 50.3C52.2216 50.3 51.0416 49.8267 50.0683 48.88C49.1083 47.9333 48.6283 46.6667 48.6283 45.08C48.6283 43.5867 49.0949 42.36 50.0283 41.4C50.9749 40.44 52.0883 39.96 53.3683 39.96C54.8616 39.96 56.0283 40.42 56.8683 41.34C57.7083 42.2467 58.1283 43.4733 58.1283 45.02C58.1283 45.4333 58.1083 45.68 58.0683 45.76H50.9483C50.9749 46.4933 51.2416 47.1 51.7483 47.58C52.2683 48.06 52.8883 48.3 53.6083 48.3C54.8616 48.3 55.6749 47.7333 56.0483 46.6ZM63.6853 37.28V40.26H65.7053V42.32H63.6853V46.84C63.6853 47.2667 63.7853 47.58 63.9853 47.78C64.1853 47.9667 64.4986 48.06 64.9253 48.06C65.192 48.06 65.4586 48.0333 65.7253 47.98V49.9C65.3786 50.0467 64.9053 50.12 64.3053 50.12C63.3986 50.12 62.6853 49.8667 62.1653 49.36C61.6453 48.84 61.3853 48.1267 61.3853 47.22V42.32H59.5853V40.26H60.0853C60.5786 40.26 60.952 40.12 61.2053 39.84C61.4586 39.56 61.5853 39.1933 61.5853 38.74V37.28H63.6853ZM72.9509 47.36L74.9709 46.8C75.0109 47.2667 75.2043 47.66 75.5509 47.98C75.8976 48.3 76.3643 48.46 76.9509 48.46C77.4043 48.46 77.7576 48.3533 78.0109 48.14C78.2776 47.9267 78.4109 47.66 78.4109 47.34C78.4109 46.78 78.0309 46.42 77.2709 46.26L75.8309 45.94C74.9909 45.7533 74.3443 45.4067 73.8909 44.9C73.4376 44.3933 73.2109 43.7933 73.2109 43.1C73.2109 42.2467 73.5576 41.5133 74.2509 40.9C74.9443 40.2733 75.7909 39.96 76.7909 39.96C77.4309 39.96 77.9976 40.0533 78.4909 40.24C78.9843 40.4267 79.3643 40.6733 79.6309 40.98C79.9109 41.2733 80.1243 41.56 80.2709 41.84C80.4176 42.12 80.5109 42.4 80.5509 42.68L78.5909 43.24C78.5376 42.8667 78.3643 42.5333 78.0709 42.24C77.7909 41.9333 77.3643 41.78 76.7909 41.78C76.3909 41.78 76.0576 41.8933 75.7909 42.12C75.5243 42.3333 75.3909 42.5933 75.3909 42.9C75.3909 43.4467 75.7176 43.7867 76.3709 43.92L77.8509 44.22C78.7576 44.42 79.4509 44.78 79.9309 45.3C80.4109 45.82 80.6509 46.4467 80.6509 47.18C80.6509 47.9933 80.3243 48.72 79.6709 49.36C79.0309 49.9867 78.1309 50.3 76.9709 50.3C76.3043 50.3 75.7043 50.2 75.1709 50C74.6509 49.8 74.2376 49.5467 73.9309 49.24C73.6376 48.92 73.4043 48.6067 73.2309 48.3C73.0709 47.98 72.9776 47.6667 72.9509 47.36ZM86.2916 37.28V40.26H88.3116V42.32H86.2916V46.84C86.2916 47.2667 86.3916 47.58 86.5916 47.78C86.7916 47.9667 87.1049 48.06 87.5316 48.06C87.7982 48.06 88.0649 48.0333 88.3316 47.98V49.9C87.9849 50.0467 87.5116 50.12 86.9116 50.12C86.0049 50.12 85.2916 49.8667 84.7716 49.36C84.2516 48.84 83.9916 48.1267 83.9916 47.22V42.32H82.1916V40.26H82.6916C83.1849 40.26 83.5582 40.12 83.8116 39.84C84.0649 39.56 84.1916 39.1933 84.1916 38.74V37.28H86.2916ZM90.5148 47.36C90.5148 46.5333 90.7815 45.8733 91.3148 45.38C91.8615 44.8733 92.5748 44.5533 93.4548 44.42L95.9548 44.04C96.4348 43.9733 96.6748 43.74 96.6748 43.34C96.6748 42.9 96.5215 42.5467 96.2148 42.28C95.9082 42 95.4482 41.86 94.8348 41.86C94.2482 41.86 93.7815 42.0267 93.4348 42.36C93.0882 42.68 92.8882 43.1 92.8348 43.62L90.7148 43.14C90.8082 42.26 91.2282 41.5133 91.9748 40.9C92.7215 40.2733 93.6682 39.96 94.8148 39.96C96.2282 39.96 97.2682 40.3 97.9348 40.98C98.6148 41.66 98.9548 42.5333 98.9548 43.6V48.44C98.9548 49.08 98.9948 49.6 99.0748 50H96.9148C96.8482 49.8 96.8148 49.3867 96.8148 48.76C96.1748 49.7867 95.1748 50.3 93.8148 50.3C92.8282 50.3 92.0282 50.0133 91.4148 49.44C90.8148 48.8533 90.5148 48.16 90.5148 47.36ZM94.2548 48.48C94.9748 48.48 95.5548 48.2867 95.9948 47.9C96.4482 47.5 96.6748 46.8533 96.6748 45.96V45.52L94.1348 45.9C93.2682 46.0467 92.8348 46.4867 92.8348 47.22C92.8348 47.5667 92.9615 47.8667 93.2148 48.12C93.4682 48.36 93.8148 48.48 94.2548 48.48ZM107.859 40.2V42.56C107.593 42.52 107.339 42.5 107.099 42.5C105.353 42.5 104.479 43.4533 104.479 45.36V50H102.159V40.26H104.419V41.82C104.646 41.3 105.013 40.8933 105.519 40.6C106.026 40.2933 106.599 40.14 107.239 40.14C107.453 40.14 107.659 40.16 107.859 40.2ZM113.566 37.28V40.26H115.586V42.32H113.566V46.84C113.566 47.2667 113.666 47.58 113.866 47.78C114.066 47.9667 114.379 48.06 114.806 48.06C115.072 48.06 115.339 48.0333 115.606 47.98V49.9C115.259 50.0467 114.786 50.12 114.186 50.12C113.279 50.12 112.566 49.8667 112.046 49.36C111.526 48.84 111.266 48.1267 111.266 47.22V42.32H109.466V40.26H109.966C110.459 40.26 110.832 40.12 111.086 39.84C111.339 39.56 111.466 39.1933 111.466 38.74V37.28H113.566ZM119.892 44.06H124.672C124.645 43.4467 124.425 42.9333 124.012 42.52C123.612 42.1067 123.032 41.9 122.272 41.9C121.579 41.9 121.019 42.12 120.592 42.56C120.165 42.9867 119.932 43.4867 119.892 44.06ZM124.932 46.6L126.892 47.22C126.612 48.1133 126.085 48.8533 125.312 49.44C124.552 50.0133 123.612 50.3 122.492 50.3C121.105 50.3 119.925 49.8267 118.952 48.88C117.992 47.9333 117.512 46.6667 117.512 45.08C117.512 43.5867 117.979 42.36 118.912 41.4C119.859 40.44 120.972 39.96 122.252 39.96C123.745 39.96 124.912 40.42 125.752 41.34C126.592 42.2467 127.012 43.4733 127.012 45.02C127.012 45.4333 126.992 45.68 126.952 45.76H119.832C119.859 46.4933 120.125 47.1 120.632 47.58C121.152 48.06 121.772 48.3 122.492 48.3C123.745 48.3 124.559 47.7333 124.932 46.6ZM131.189 45.1C131.189 46.0333 131.429 46.7867 131.909 47.36C132.389 47.92 133.022 48.2 133.809 48.2C134.569 48.2 135.189 47.9133 135.669 47.34C136.149 46.7667 136.389 46.0133 136.389 45.08C136.389 44.16 136.156 43.4267 135.689 42.88C135.222 42.3333 134.602 42.06 133.829 42.06C133.056 42.06 132.422 42.34 131.929 42.9C131.436 43.4467 131.189 44.18 131.189 45.1ZM138.629 35.52V48.22C138.629 48.8733 138.662 49.4667 138.729 50H136.509C136.442 49.6267 136.409 49.2067 136.409 48.74C136.169 49.18 135.796 49.54 135.289 49.82C134.782 50.1 134.202 50.24 133.549 50.24C132.162 50.24 131.036 49.7533 130.169 48.78C129.302 47.8067 128.869 46.58 128.869 45.1C128.869 43.6733 129.302 42.4667 130.169 41.48C131.049 40.4933 132.162 40 133.509 40C134.282 40 134.902 40.14 135.369 40.42C135.849 40.7 136.182 41.0267 136.369 41.4V35.52H138.629Z" fill="white"/>
<rect x="171.75" y="27.75" width="30.5" height="30.5" rx="1.25" fill="#FFC1DA" fill-opacity="0.28" stroke="white" stroke-width="1.5"/>
<path d="M160 42.1579C159.448 42.1579 159 42.6056 159 43.1579C159 43.7102 159.448 44.1579 160 44.1579V42.1579ZM189 43.1579L189.686 43.8852C189.893 43.69 190.007 43.416 190 43.1317C189.992 42.8475 189.864 42.5798 189.647 42.3957L189 43.1579ZM181.064 49.2727C180.662 49.6518 180.644 50.2847 181.023 50.6864C181.402 51.088 182.035 51.1063 182.436 50.7273L181.064 49.2727ZM182.397 36.2378C181.976 35.8803 181.345 35.9317 180.988 36.3526C180.63 36.7736 180.682 37.4046 181.103 37.7622L182.397 36.2378ZM160 44.1579H189V42.1579H160V44.1579ZM188.314 42.4306L181.064 49.2727L182.436 50.7273L189.686 43.8852L188.314 42.4306ZM189.647 42.3957L182.397 36.2378L181.103 37.7622L188.353 43.9201L189.647 42.3957Z" fill="white"/>
</g>
<defs>
<filter id="filter0_d_1_64" x="0" y="0" width="256" height="106" filterUnits="userSpaceOnUse" color-interpolation-filters="sRGB">
<feFlood flood-opacity="0" result="BackgroundImageFix"/>
<feColorMatrix in="SourceAlpha" type="matrix" values="0 0 0 0 0 0 0 0 0 0 0 0 0 0 0 0 0 0 127 0" result="hardAlpha"/>
<feOffset dx="10" dy="10"/>
<feGaussianBlur stdDeviation="10"/>
<feColorMatrix type="matrix" values="0 0 0 0 0.980392 0 0 0 0 0.552941 0 0 0 0 0.721569 0 0 0 0.2 0"/>
<feBlend mode="normal" in2="BackgroundImageFix" result="effect1_dropShadow_1_64"/>
<feBlend mode="normal" in="SourceGraphic" in2="effect1_dropShadow_1_64" result="shape"/>
</filter>
</defs>
</svg>
