<svg width="270" height="307" viewBox="0 0 270 307" fill="none" xmlns="http://www.w3.org/2000/svg">
<rect width="270" height="307" rx="8" fill="#FFF1F9"/>
<path d="M88.97 185.26H93.254C95.4753 185.26 97.3 184.557 98.728 183.152C100.179 181.724 100.904 179.673 100.904 176.998C100.904 174.301 100.19 172.238 98.762 170.81C97.334 169.359 95.5093 168.634 93.288 168.634H88.97V185.26ZM93.39 189H84.89V164.894H93.424C96.824 164.894 99.6233 165.971 101.822 168.124C104.043 170.277 105.154 173.235 105.154 176.998C105.154 180.738 104.043 183.673 101.822 185.804C99.6007 187.935 96.79 189 93.39 189ZM111.908 178.902H120.034C119.988 177.859 119.614 176.987 118.912 176.284C118.232 175.581 117.246 175.23 115.954 175.23C114.775 175.23 113.823 175.604 113.098 176.352C112.372 177.077 111.976 177.927 111.908 178.902ZM120.476 183.22L123.808 184.274C123.332 185.793 122.436 187.051 121.122 188.048C119.83 189.023 118.232 189.51 116.328 189.51C113.97 189.51 111.964 188.705 110.31 187.096C108.678 185.487 107.862 183.333 107.862 180.636C107.862 178.097 108.655 176.012 110.242 174.38C111.851 172.748 113.744 171.932 115.92 171.932C118.458 171.932 120.442 172.714 121.87 174.278C123.298 175.819 124.012 177.905 124.012 180.534C124.012 181.237 123.978 181.656 123.91 181.792H111.806C111.851 183.039 112.304 184.07 113.166 184.886C114.05 185.702 115.104 186.11 116.328 186.11C118.458 186.11 119.841 185.147 120.476 183.22ZM126.318 184.512L129.752 183.56C129.82 184.353 130.149 185.022 130.738 185.566C131.328 186.11 132.121 186.382 133.118 186.382C133.889 186.382 134.49 186.201 134.92 185.838C135.374 185.475 135.6 185.022 135.6 184.478C135.6 183.526 134.954 182.914 133.662 182.642L131.214 182.098C129.786 181.781 128.687 181.191 127.916 180.33C127.146 179.469 126.76 178.449 126.76 177.27C126.76 175.819 127.35 174.573 128.528 173.53C129.707 172.465 131.146 171.932 132.846 171.932C133.934 171.932 134.898 172.091 135.736 172.408C136.575 172.725 137.221 173.145 137.674 173.666C138.15 174.165 138.513 174.652 138.762 175.128C139.012 175.604 139.17 176.08 139.238 176.556L135.906 177.508C135.816 176.873 135.521 176.307 135.022 175.808C134.546 175.287 133.821 175.026 132.846 175.026C132.166 175.026 131.6 175.219 131.146 175.604C130.693 175.967 130.466 176.409 130.466 176.93C130.466 177.859 131.022 178.437 132.132 178.664L134.648 179.174C136.19 179.514 137.368 180.126 138.184 181.01C139 181.894 139.408 182.959 139.408 184.206C139.408 185.589 138.853 186.824 137.742 187.912C136.654 188.977 135.124 189.51 133.152 189.51C132.019 189.51 130.999 189.34 130.092 189C129.208 188.66 128.506 188.229 127.984 187.708C127.486 187.164 127.089 186.631 126.794 186.11C126.522 185.566 126.364 185.033 126.318 184.512ZM147.23 189H143.32V172.442H147.23V189ZM143.456 168.43C142.957 167.931 142.708 167.331 142.708 166.628C142.708 165.925 142.957 165.325 143.456 164.826C143.954 164.305 144.555 164.044 145.258 164.044C145.983 164.044 146.595 164.293 147.094 164.792C147.592 165.291 147.842 165.903 147.842 166.628C147.842 167.331 147.592 167.931 147.094 168.43C146.595 168.929 145.983 169.178 145.258 169.178C144.555 169.178 143.954 168.929 143.456 168.43ZM151.128 189.918L154.766 188.966C154.902 190.009 155.344 190.859 156.092 191.516C156.862 192.196 157.803 192.536 158.914 192.536C162.042 192.536 163.606 190.881 163.606 187.572V185.838C163.22 186.541 162.608 187.119 161.77 187.572C160.931 188.025 159.945 188.252 158.812 188.252C156.59 188.252 154.754 187.493 153.304 185.974C151.876 184.455 151.162 182.529 151.162 180.194C151.162 177.95 151.876 176.046 153.304 174.482C154.732 172.918 156.568 172.136 158.812 172.136C161.237 172.136 162.869 172.941 163.708 174.55V172.442H167.516V187.436C167.516 189.884 166.824 191.913 165.442 193.522C164.059 195.154 161.917 195.97 159.016 195.97C156.885 195.97 155.094 195.392 153.644 194.236C152.193 193.08 151.354 191.641 151.128 189.918ZM159.458 184.886C160.727 184.886 161.747 184.467 162.518 183.628C163.311 182.767 163.708 181.622 163.708 180.194C163.708 178.789 163.311 177.667 162.518 176.828C161.724 175.967 160.704 175.536 159.458 175.536C158.188 175.536 157.146 175.967 156.33 176.828C155.536 177.667 155.14 178.789 155.14 180.194C155.14 181.622 155.536 182.767 156.33 183.628C157.123 184.467 158.166 184.886 159.458 184.886ZM176.283 179.446V189H172.339V172.442H176.181V174.652C176.702 173.745 177.394 173.077 178.255 172.646C179.139 172.193 180.08 171.966 181.077 171.966C183.026 171.966 184.511 172.578 185.531 173.802C186.551 175.026 187.061 176.601 187.061 178.528V189H183.117V179.208C183.117 178.097 182.845 177.213 182.301 176.556C181.757 175.876 180.896 175.536 179.717 175.536C178.629 175.536 177.779 175.91 177.167 176.658C176.578 177.383 176.283 178.313 176.283 179.446Z" fill="#56597A"/>
<g clip-path="url(#clip0_1_100)">
<path d="M160.175 79.6598V79.6584L159.479 78.9066L159.54 78.7423L159.54 78.7423L148.32 74.6134V61.3765V61.2015H148.319C148.338 60.7865 148.09 60.3923 147.684 60.2463C147.684 60.2462 147.684 60.2462 147.684 60.2461L135.831 55.8848C135.831 55.8847 135.831 55.8847 135.831 55.8846C135.617 55.8051 135.383 55.8051 135.169 55.8846C135.169 55.8847 135.169 55.8847 135.169 55.8848L123.315 60.2465L123.314 60.2467C123.05 60.345 122.844 60.5533 122.746 60.8136H122.68V60.9886V74.6134L111.46 78.7423L111.46 78.7426C111.195 78.8409 110.99 79.0491 110.891 79.3094H110.825V79.4844V93.6632V93.8382H110.825C110.825 94.2392 111.072 94.6106 111.46 94.7533L123.314 99.1149C123.314 99.1149 123.314 99.1149 123.314 99.115C123.528 99.195 123.763 99.195 123.976 99.115C123.976 99.115 123.976 99.1149 123.976 99.1149L135.5 94.8745L147.024 99.1149C147.024 99.1149 147.024 99.1149 147.024 99.115C147.237 99.195 147.472 99.195 147.686 99.115C147.686 99.1149 147.686 99.1149 147.686 99.1149L159.54 94.7533C159.791 94.661 159.99 94.469 160.094 94.2261H160.175V94.0511L160.175 79.8724L160.175 79.8716V79.8715L160.175 79.8712L160.175 79.87L160.175 79.8655L160.175 79.8485L160.175 79.7922C160.175 79.7478 160.175 79.6951 160.175 79.6598ZM122.68 84.7034V96.8066L112.756 93.1552V81.051L122.68 84.7034ZM123.583 76.3557L132.619 79.6814L123.645 82.9831L114.61 79.6584L123.583 76.3557ZM134.535 81.051V93.1552L124.61 96.8066V84.7034L134.535 81.051ZM134.535 66.2075V78.2658L124.61 74.6134V62.5552L134.535 66.2075ZM126.465 61.1626L135.5 57.8378L144.535 61.1626L135.5 64.4873L126.465 61.1626ZM136.465 66.2075L146.39 62.5552V74.6134L136.465 78.2658V66.2075ZM146.39 84.7034V96.8066L136.465 93.1552V81.051L146.39 84.7034ZM156.39 79.6584L147.355 82.9831L138.381 79.6814L147.417 76.3557L156.39 79.6584ZM158.244 81.051V93.1552L148.32 96.8066V84.7034L158.244 81.051Z" fill="#FC85B4" stroke="#FC85B4" stroke-width="0.35"/>
</g>
<path d="M36.5445 230V224.688C36.5445 222.816 35.1845 222.08 33.5525 222.08C32.2885 222.08 31.2965 222.496 30.4645 223.36L31.0245 224.192C31.7125 223.456 32.4645 223.12 33.3925 223.12C34.5125 223.12 35.3445 223.712 35.3445 224.752V226.144C34.7205 225.424 33.8405 225.088 32.7845 225.088C31.4725 225.088 30.0805 225.904 30.0805 227.632C30.0805 229.312 31.4725 230.192 32.7845 230.192C33.8245 230.192 34.7045 229.824 35.3445 229.12V230H36.5445ZM33.2165 229.328C32.0965 229.328 31.3125 228.624 31.3125 227.648C31.3125 226.656 32.0965 225.952 33.2165 225.952C34.0645 225.952 34.8805 226.272 35.3445 226.912V228.368C34.8805 229.008 34.0645 229.328 33.2165 229.328ZM46.883 230.192C48.915 230.192 50.323 228.624 50.323 226.128C50.323 223.616 48.915 222.08 46.883 222.08C45.795 222.08 44.835 222.64 44.275 223.424V222.272H43.075V232.944H44.275V228.832C44.899 229.696 45.827 230.192 46.883 230.192ZM46.579 229.12C45.635 229.12 44.691 228.544 44.275 227.872V224.384C44.691 223.712 45.635 223.152 46.579 223.152C48.131 223.152 49.059 224.416 49.059 226.128C49.059 227.84 48.131 229.12 46.579 229.12ZM53.4313 230V219.328H52.2313V230H53.4313ZM61.857 230V224.688C61.857 222.816 60.497 222.08 58.865 222.08C57.601 222.08 56.609 222.496 55.777 223.36L56.337 224.192C57.025 223.456 57.777 223.12 58.705 223.12C59.825 223.12 60.657 223.712 60.657 224.752V226.144C60.033 225.424 59.153 225.088 58.097 225.088C56.785 225.088 55.393 225.904 55.393 227.632C55.393 229.312 56.785 230.192 58.097 230.192C59.137 230.192 60.017 229.824 60.657 229.12V230H61.857ZM58.529 229.328C57.409 229.328 56.625 228.624 56.625 227.648C56.625 226.656 57.409 225.952 58.529 225.952C59.377 225.952 60.193 226.272 60.657 226.912V228.368C60.193 229.008 59.377 229.328 58.529 229.328ZM70.6785 230V224.576C70.6785 222.896 69.8305 222.08 68.2145 222.08C67.0625 222.08 66.0065 222.752 65.4625 223.392V222.272H64.2625V230H65.4625V224.352C65.9105 223.728 66.8065 223.152 67.7505 223.152C68.7905 223.152 69.4785 223.584 69.4785 224.944V230H70.6785ZM80.576 230.192C82.928 230.192 84.4 228.368 84.4 226.128C84.4 223.888 82.928 222.08 80.576 222.08C78.224 222.08 76.752 223.888 76.752 226.128C76.752 228.368 78.224 230.192 80.576 230.192ZM80.576 229.12C78.928 229.12 78 227.712 78 226.128C78 224.56 78.928 223.152 80.576 223.152C82.224 223.152 83.136 224.56 83.136 226.128C83.136 227.712 82.224 229.12 80.576 229.12ZM87.5563 230V224.528C87.9083 223.904 88.9163 223.296 89.6523 223.296C89.8443 223.296 89.9883 223.312 90.1323 223.344V222.112C89.0763 222.112 88.1803 222.704 87.5563 223.52V222.272H86.3563V230H87.5563ZM102.562 230V219.328H101.363V223.44C100.739 222.592 99.7945 222.08 98.7545 222.08C96.7225 222.08 95.3145 223.68 95.3145 226.144C95.3145 228.656 96.7385 230.192 98.7545 230.192C99.8425 230.192 100.787 229.632 101.363 228.848V230H102.562ZM99.0425 229.12C97.4905 229.12 96.5625 227.856 96.5625 226.144C96.5625 224.432 97.4905 223.152 99.0425 223.152C100.003 223.152 100.931 223.728 101.363 224.4V227.904C100.931 228.576 100.003 229.12 99.0425 229.12ZM106.166 230V224.528C106.518 223.904 107.526 223.296 108.262 223.296C108.454 223.296 108.598 223.312 108.742 223.344V222.112C107.686 222.112 106.79 222.704 106.166 223.52V222.272H104.966V230H106.166ZM116.279 230V224.688C116.279 222.816 114.919 222.08 113.287 222.08C112.023 222.08 111.031 222.496 110.199 223.36L110.759 224.192C111.447 223.456 112.199 223.12 113.127 223.12C114.247 223.12 115.079 223.712 115.079 224.752V226.144C114.455 225.424 113.575 225.088 112.519 225.088C111.207 225.088 109.815 225.904 109.815 227.632C109.815 229.312 111.207 230.192 112.519 230.192C113.559 230.192 114.439 229.824 115.079 229.12V230H116.279ZM112.951 229.328C111.831 229.328 111.047 228.624 111.047 227.648C111.047 226.656 111.831 225.952 112.951 225.952C113.799 225.952 114.615 226.272 115.079 226.912V228.368C114.615 229.008 113.799 229.328 112.951 229.328ZM126.572 230L129.036 222.272H127.788L125.9 228.432L123.868 222.272H122.844L120.812 228.432L118.924 222.272H117.676L120.14 230H121.34L123.356 223.792L125.372 230H126.572ZM131.026 221.168C131.474 221.168 131.842 220.816 131.842 220.368C131.842 219.92 131.474 219.552 131.026 219.552C130.594 219.552 130.226 219.92 130.226 220.368C130.226 220.816 130.594 221.168 131.026 221.168ZM131.634 230V222.272H130.434V230H131.634ZM140.444 230V224.576C140.444 222.896 139.596 222.08 137.98 222.08C136.828 222.08 135.772 222.752 135.228 223.392V222.272H134.028V230H135.228V224.352C135.676 223.728 136.572 223.152 137.516 223.152C138.556 223.152 139.244 223.584 139.244 224.944V230H140.444ZM145.945 233.136C147.833 233.136 149.625 232.336 149.625 229.776V222.272H148.425V223.44C147.801 222.592 146.873 222.08 145.833 222.08C143.801 222.08 142.393 223.616 142.393 226.096C142.393 228.592 143.817 230.096 145.833 230.096C146.921 230.096 147.865 229.504 148.425 228.72V229.824C148.425 231.52 147.225 232.144 145.945 232.144C144.841 232.144 144.073 231.856 143.433 231.088L142.825 231.984C143.737 232.88 144.633 233.136 145.945 233.136ZM146.121 229.04C144.569 229.04 143.641 227.792 143.641 226.096C143.641 224.384 144.569 223.152 146.121 223.152C147.081 223.152 148.009 223.728 148.425 224.4V227.776C148.009 228.448 147.081 229.04 146.121 229.04ZM159.961 230.192C161.993 230.192 163.401 228.624 163.401 226.128C163.401 223.616 161.993 222.08 159.961 222.08C158.873 222.08 157.913 222.64 157.353 223.424V222.272H156.153V232.944H157.353V228.832C157.977 229.696 158.905 230.192 159.961 230.192ZM159.657 229.12C158.713 229.12 157.769 228.544 157.353 227.872V224.384C157.769 223.712 158.713 223.152 159.657 223.152C161.209 223.152 162.137 224.416 162.137 226.128C162.137 227.84 161.209 229.12 159.657 229.12ZM166.509 230V224.528C166.861 223.904 167.869 223.296 168.605 223.296C168.797 223.296 168.941 223.312 169.085 223.344V222.112C168.029 222.112 167.133 222.704 166.509 223.52V222.272H165.309V230H166.509ZM173.967 230.192C176.319 230.192 177.791 228.368 177.791 226.128C177.791 223.888 176.319 222.08 173.967 222.08C171.615 222.08 170.143 223.888 170.143 226.128C170.143 228.368 171.615 230.192 173.967 230.192ZM173.967 229.12C172.319 229.12 171.391 227.712 171.391 226.128C171.391 224.56 172.319 223.152 173.967 223.152C175.615 223.152 176.527 224.56 176.527 226.128C176.527 227.712 175.615 229.12 173.967 229.12ZM186.547 230V219.328H185.347V223.44C184.723 222.592 183.779 222.08 182.739 222.08C180.707 222.08 179.299 223.68 179.299 226.144C179.299 228.656 180.723 230.192 182.739 230.192C183.827 230.192 184.771 229.632 185.347 228.848V230H186.547ZM183.027 229.12C181.475 229.12 180.547 227.856 180.547 226.144C180.547 224.432 181.475 223.152 183.027 223.152C183.987 223.152 184.915 223.728 185.347 224.4V227.904C184.915 228.576 183.987 229.12 183.027 229.12ZM195.366 230V222.272H194.166V227.952C193.718 228.576 192.822 229.12 191.878 229.12C190.838 229.12 190.15 228.72 190.15 227.36V222.272H188.95V227.728C188.95 229.408 189.798 230.192 191.414 230.192C192.566 230.192 193.574 229.584 194.166 228.912V230H195.366ZM201.171 230.192C202.579 230.192 203.411 229.616 204.003 228.848L203.203 228.112C202.691 228.8 202.035 229.12 201.235 229.12C199.587 229.12 198.562 227.84 198.562 226.128C198.562 224.416 199.587 223.152 201.235 223.152C202.035 223.152 202.691 223.456 203.203 224.16L204.003 223.424C203.411 222.656 202.579 222.08 201.171 222.08C198.867 222.08 197.315 223.84 197.315 226.128C197.315 228.432 198.867 230.192 201.171 230.192ZM209.172 230.192C210.436 230.192 211.476 229.776 212.244 229.008L211.668 228.224C211.06 228.848 210.164 229.2 209.284 229.2C207.62 229.2 206.596 227.984 206.5 226.528H212.756V226.224C212.756 223.904 211.38 222.08 209.044 222.08C206.836 222.08 205.236 223.888 205.236 226.128C205.236 228.544 206.884 230.192 209.172 230.192ZM211.572 225.648H206.5C206.564 224.464 207.38 223.072 209.028 223.072C210.788 223.072 211.556 224.496 211.572 225.648ZM221.5 230V219.328H220.3V223.44C219.676 222.592 218.732 222.08 217.692 222.08C215.66 222.08 214.252 223.68 214.252 226.144C214.252 228.656 215.676 230.192 217.692 230.192C218.78 230.192 219.724 229.632 220.3 228.848V230H221.5ZM217.98 229.12C216.428 229.12 215.5 227.856 215.5 226.144C215.5 224.432 216.428 223.152 217.98 223.152C218.94 223.152 219.868 223.728 220.3 224.4V227.904C219.868 228.576 218.94 229.12 217.98 229.12ZM229.98 230.192C230.684 230.192 231.116 229.984 231.42 229.696L231.068 228.8C230.908 228.976 230.588 229.12 230.252 229.12C229.724 229.12 229.468 228.704 229.468 228.128V223.328H231.036V222.272H229.468V220.16H228.268V222.272H226.988V223.328H228.268V228.384C228.268 229.536 228.844 230.192 229.98 230.192ZM236.107 230.192C238.459 230.192 239.931 228.368 239.931 226.128C239.931 223.888 238.459 222.08 236.107 222.08C233.755 222.08 232.283 223.888 232.283 226.128C232.283 228.368 233.755 230.192 236.107 230.192ZM236.107 229.12C234.459 229.12 233.531 227.712 233.531 226.128C233.531 224.56 234.459 223.152 236.107 223.152C237.755 223.152 238.667 224.56 238.667 226.128C238.667 227.712 237.755 229.12 236.107 229.12ZM44.0777 254.192C46.0777 254.192 47.1177 253.152 47.1177 251.856C47.1177 248.848 42.3337 249.968 42.3337 248.272C42.3337 247.584 42.9897 247.056 44.0457 247.056C45.0377 247.056 45.8857 247.472 46.3497 248.032L46.9097 247.2C46.2857 246.576 45.3577 246.08 44.0457 246.08C42.2057 246.08 41.1657 247.104 41.1657 248.304C41.1657 251.168 45.9497 250.016 45.9497 251.888C45.9497 252.656 45.3097 253.216 44.1257 253.216C43.0697 253.216 42.0937 252.704 41.5817 252.112L40.9577 252.976C41.7417 253.808 42.8137 254.192 44.0777 254.192ZM55.4992 254V248.544C55.4992 246.864 54.6512 246.08 53.0352 246.08C51.8672 246.08 50.8112 246.752 50.2672 247.392V243.328H49.0672V254H50.2672V248.352C50.7312 247.728 51.6272 247.152 52.5552 247.152C53.5952 247.152 54.2992 247.552 54.2992 248.912V254H55.4992ZM61.2713 254.192C63.6233 254.192 65.0953 252.368 65.0953 250.128C65.0953 247.888 63.6233 246.08 61.2713 246.08C58.9193 246.08 57.4473 247.888 57.4473 250.128C57.4473 252.368 58.9193 254.192 61.2713 254.192ZM61.2713 253.12C59.6233 253.12 58.6953 251.712 58.6953 250.128C58.6953 248.56 59.6233 247.152 61.2713 247.152C62.9193 247.152 63.8313 248.56 63.8313 250.128C63.8313 251.712 62.9193 253.12 61.2713 253.12ZM74.9396 254L77.4036 246.272H76.1556L74.2676 252.432L72.2356 246.272H71.2116L69.1796 252.432L67.2916 246.272H66.0436L68.5076 254H69.7076L71.7236 247.792L73.7396 254H74.9396ZM84.8786 254.192C85.5826 254.192 86.0146 253.984 86.3186 253.696L85.9666 252.8C85.8066 252.976 85.4866 253.12 85.1506 253.12C84.6226 253.12 84.3666 252.704 84.3666 252.128V247.328H85.9346V246.272H84.3666V244.16H83.1666V246.272H81.8866V247.328H83.1666V252.384C83.1666 253.536 83.7426 254.192 84.8786 254.192ZM94.0617 254V248.544C94.0617 246.864 93.2137 246.08 91.5977 246.08C90.4297 246.08 89.3737 246.752 88.8297 247.392V243.328H87.6297V254H88.8297V248.352C89.2937 247.728 90.1897 247.152 91.1177 247.152C92.1577 247.152 92.8617 247.552 92.8617 248.912V254H94.0617ZM99.9458 254.192C101.21 254.192 102.25 253.776 103.018 253.008L102.442 252.224C101.834 252.848 100.938 253.2 100.058 253.2C98.3938 253.2 97.3698 251.984 97.2738 250.528H103.53V250.224C103.53 247.904 102.154 246.08 99.8178 246.08C97.6098 246.08 96.0098 247.888 96.0098 250.128C96.0098 252.544 97.6578 254.192 99.9458 254.192ZM102.346 249.648H97.2738C97.3378 248.464 98.1538 247.072 99.8018 247.072C101.562 247.072 102.33 248.496 102.346 249.648ZM110.798 254V243.328H109.598V254H110.798ZM116.568 254.192C118.92 254.192 120.392 252.368 120.392 250.128C120.392 247.888 118.92 246.08 116.568 246.08C114.216 246.08 112.744 247.888 112.744 250.128C112.744 252.368 114.216 254.192 116.568 254.192ZM116.568 253.12C114.92 253.12 113.992 251.712 113.992 250.128C113.992 248.56 114.92 247.152 116.568 247.152C118.216 247.152 119.128 248.56 119.128 250.128C119.128 251.712 118.216 253.12 116.568 253.12ZM125.724 254.192C128.076 254.192 129.548 252.368 129.548 250.128C129.548 247.888 128.076 246.08 125.724 246.08C123.372 246.08 121.9 247.888 121.9 250.128C121.9 252.368 123.372 254.192 125.724 254.192ZM125.724 253.12C124.076 253.12 123.148 251.712 123.148 250.128C123.148 248.56 124.076 247.152 125.724 247.152C127.372 247.152 128.284 248.56 128.284 250.128C128.284 251.712 127.372 253.12 125.724 253.12ZM138.305 254L134.865 249.776L138.289 246.272H136.769L132.705 250.384V243.328H131.505V254H132.705V251.792L133.985 250.528L136.769 254H138.305ZM149.88 254V248.688C149.88 246.816 148.52 246.08 146.888 246.08C145.624 246.08 144.632 246.496 143.8 247.36L144.36 248.192C145.048 247.456 145.8 247.12 146.728 247.12C147.848 247.12 148.68 247.712 148.68 248.752V250.144C148.056 249.424 147.176 249.088 146.12 249.088C144.808 249.088 143.416 249.904 143.416 251.632C143.416 253.312 144.808 254.192 146.12 254.192C147.16 254.192 148.04 253.824 148.68 253.12V254H149.88ZM146.552 253.328C145.432 253.328 144.648 252.624 144.648 251.648C144.648 250.656 145.432 249.952 146.552 249.952C147.4 249.952 148.216 250.272 148.68 250.912V252.368C148.216 253.008 147.4 253.328 146.552 253.328ZM158.702 254V248.576C158.702 246.896 157.854 246.08 156.238 246.08C155.086 246.08 154.03 246.752 153.486 247.392V246.272H152.286V254H153.486V248.352C153.934 247.728 154.83 247.152 155.774 247.152C156.814 247.152 157.502 247.584 157.502 248.944V254H158.702ZM167.898 254V243.328H166.698V247.44C166.074 246.592 165.13 246.08 164.09 246.08C162.058 246.08 160.65 247.68 160.65 250.144C160.65 252.656 162.074 254.192 164.09 254.192C165.178 254.192 166.122 253.632 166.698 252.848V254H167.898ZM164.378 253.12C162.826 253.12 161.898 251.856 161.898 250.144C161.898 248.432 162.826 247.152 164.378 247.152C165.338 247.152 166.266 247.728 166.698 248.4V251.904C166.266 252.576 165.338 253.12 164.378 253.12ZM175.963 254V247.328H177.531V246.272H175.963V245.68C175.963 244.704 176.395 244.16 177.179 244.16C177.579 244.16 177.883 244.32 178.139 244.544L178.635 243.76C178.155 243.312 177.611 243.168 177.003 243.168C175.627 243.168 174.763 244.096 174.763 245.68V246.272H173.483V247.328H174.763V254H175.963ZM185.374 254V246.272H184.174V251.952C183.726 252.576 182.83 253.12 181.886 253.12C180.846 253.12 180.158 252.72 180.158 251.36V246.272H178.958V251.728C178.958 253.408 179.806 254.192 181.422 254.192C182.574 254.192 183.582 253.584 184.174 252.912V254H185.374ZM194.186 254V248.576C194.186 246.896 193.338 246.08 191.722 246.08C190.57 246.08 189.514 246.752 188.97 247.392V246.272H187.77V254H188.97V248.352C189.418 247.728 190.314 247.152 191.258 247.152C192.298 247.152 192.986 247.584 192.986 248.944V254H194.186ZM199.991 254.192C201.399 254.192 202.231 253.616 202.823 252.848L202.023 252.112C201.511 252.8 200.855 253.12 200.055 253.12C198.407 253.12 197.383 251.84 197.383 250.128C197.383 248.416 198.407 247.152 200.055 247.152C200.855 247.152 201.511 247.456 202.023 248.16L202.823 247.424C202.231 246.656 201.399 246.08 199.991 246.08C197.687 246.08 196.135 247.84 196.135 250.128C196.135 252.432 197.687 254.192 199.991 254.192ZM206.457 254.192C207.161 254.192 207.593 253.984 207.897 253.696L207.545 252.8C207.385 252.976 207.065 253.12 206.729 253.12C206.201 253.12 205.945 252.704 205.945 252.128V247.328H207.513V246.272H205.945V244.16H204.745V246.272H203.465V247.328H204.745V252.384C204.745 253.536 205.321 254.192 206.457 254.192ZM209.8 245.168C210.248 245.168 210.616 244.816 210.616 244.368C210.616 243.92 210.248 243.552 209.8 243.552C209.368 243.552 209 243.92 209 244.368C209 244.816 209.368 245.168 209.8 245.168ZM210.408 254V246.272H209.208V254H210.408ZM216.178 254.192C218.53 254.192 220.002 252.368 220.002 250.128C220.002 247.888 218.53 246.08 216.178 246.08C213.826 246.08 212.354 247.888 212.354 250.128C212.354 252.368 213.826 254.192 216.178 254.192ZM216.178 253.12C214.53 253.12 213.602 251.712 213.602 250.128C213.602 248.56 214.53 247.152 216.178 247.152C217.826 247.152 218.738 248.56 218.738 250.128C218.738 251.712 217.826 253.12 216.178 253.12ZM228.374 254V248.576C228.374 246.896 227.526 246.08 225.91 246.08C224.758 246.08 223.702 246.752 223.158 247.392V246.272H221.958V254H223.158V248.352C223.606 247.728 224.502 247.152 225.446 247.152C226.486 247.152 227.174 247.584 227.174 248.944V254H228.374Z" fill="#919299"/>
<defs>
<clipPath id="clip0_1_100">
<rect width="50" height="50" fill="white" transform="translate(110 53)"/>
</clipPath>
</defs>
</svg>
