<svg width="270" height="307" viewBox="0 0 270 307" fill="none" xmlns="http://www.w3.org/2000/svg">
<rect width="270" height="307" rx="8" fill="#FFF1F9"/>
<path d="M39.97 185.26H44.254C46.4753 185.26 48.3 184.557 49.728 183.152C51.1787 181.724 51.904 179.673 51.904 176.998C51.904 174.301 51.19 172.238 49.762 170.81C48.334 169.359 46.5093 168.634 44.288 168.634H39.97V185.26ZM44.39 189H35.89V164.894H44.424C47.824 164.894 50.6233 165.971 52.822 168.124C55.0433 170.277 56.154 173.235 56.154 176.998C56.154 180.738 55.0433 183.673 52.822 185.804C50.6007 187.935 47.79 189 44.39 189ZM62.9075 178.902H71.0335C70.9882 177.859 70.6142 176.987 69.9115 176.284C69.2315 175.581 68.2455 175.23 66.9535 175.23C65.7748 175.23 64.8228 175.604 64.0975 176.352C63.3722 177.077 62.9755 177.927 62.9075 178.902ZM71.4755 183.22L74.8075 184.274C74.3315 185.793 73.4362 187.051 72.1215 188.048C70.8295 189.023 69.2315 189.51 67.3275 189.51C64.9702 189.51 62.9642 188.705 61.3095 187.096C59.6775 185.487 58.8615 183.333 58.8615 180.636C58.8615 178.097 59.6548 176.012 61.2415 174.38C62.8508 172.748 64.7435 171.932 66.9195 171.932C69.4582 171.932 71.4415 172.714 72.8695 174.278C74.2975 175.819 75.0115 177.905 75.0115 180.534C75.0115 181.237 74.9775 181.656 74.9095 181.792H62.8055C62.8508 183.039 63.3042 184.07 64.1655 184.886C65.0495 185.702 66.1035 186.11 67.3275 186.11C69.4582 186.11 70.8408 185.147 71.4755 183.22ZM93.4084 172.442L86.9144 189H82.9704L76.2384 172.442H80.5904L84.9764 184.274L89.2604 172.442H93.4084ZM98.5677 178.902H106.694C106.648 177.859 106.274 176.987 105.572 176.284C104.892 175.581 103.906 175.23 102.614 175.23C101.435 175.23 100.483 175.604 99.7577 176.352C99.0323 177.077 98.6357 177.927 98.5677 178.902ZM107.136 183.22L110.468 184.274C109.992 185.793 109.096 187.051 107.782 188.048C106.49 189.023 104.892 189.51 102.988 189.51C100.63 189.51 98.6243 188.705 96.9697 187.096C95.3377 185.487 94.5217 183.333 94.5217 180.636C94.5217 178.097 95.315 176.012 96.9017 174.38C98.511 172.748 100.404 171.932 102.58 171.932C105.118 171.932 107.102 172.714 108.53 174.278C109.958 175.819 110.672 177.905 110.672 180.534C110.672 181.237 110.638 181.656 110.57 181.792H98.4657C98.511 183.039 98.9643 184.07 99.8257 184.886C100.71 185.702 101.764 186.11 102.988 186.11C105.118 186.11 106.501 185.147 107.136 183.22ZM118.385 189H114.441V164.384H118.385V189ZM127.45 184.58C128.357 185.509 129.456 185.974 130.748 185.974C132.04 185.974 133.128 185.509 134.012 184.58C134.919 183.651 135.372 182.359 135.372 180.704C135.372 179.072 134.919 177.803 134.012 176.896C133.128 175.967 132.04 175.502 130.748 175.502C129.456 175.502 128.357 175.967 127.45 176.896C126.566 177.803 126.124 179.072 126.124 180.704C126.124 182.336 126.566 183.628 127.45 184.58ZM130.748 171.932C133.241 171.932 135.293 172.759 136.902 174.414C138.534 176.069 139.35 178.165 139.35 180.704C139.35 183.243 138.534 185.351 136.902 187.028C135.293 188.683 133.241 189.51 130.748 189.51C128.277 189.51 126.226 188.683 124.594 187.028C122.985 185.351 122.18 183.243 122.18 180.704C122.18 178.165 122.985 176.069 124.594 174.414C126.226 172.759 128.277 171.932 130.748 171.932ZM147.071 195.46H143.161V172.442H146.969V174.686C147.4 173.938 148.08 173.315 149.009 172.816C149.939 172.317 151.015 172.068 152.239 172.068C154.619 172.068 156.489 172.884 157.849 174.516C159.209 176.125 159.889 178.188 159.889 180.704C159.889 183.22 159.175 185.305 157.747 186.96C156.319 188.592 154.438 189.408 152.103 189.408C150.97 189.408 149.961 189.193 149.077 188.762C148.193 188.331 147.525 187.787 147.071 187.13V195.46ZM155.945 180.704C155.945 179.163 155.537 177.927 154.721 176.998C153.905 176.046 152.829 175.57 151.491 175.57C150.177 175.57 149.1 176.046 148.261 176.998C147.445 177.927 147.037 179.163 147.037 180.704C147.037 182.268 147.445 183.526 148.261 184.478C149.1 185.43 150.177 185.906 151.491 185.906C152.806 185.906 153.871 185.43 154.687 184.478C155.526 183.526 155.945 182.268 155.945 180.704ZM167.591 189H163.681V172.442H167.455V174.55C167.908 173.734 168.588 173.099 169.495 172.646C170.424 172.193 171.376 171.966 172.351 171.966C173.462 171.966 174.459 172.215 175.343 172.714C176.227 173.213 176.884 173.938 177.315 174.89C178.471 172.941 180.262 171.966 182.687 171.966C184.319 171.966 185.702 172.499 186.835 173.564C187.968 174.629 188.535 176.193 188.535 178.256V189H184.727V178.902C184.727 177.882 184.455 177.066 183.911 176.454C183.39 175.819 182.596 175.502 181.531 175.502C180.511 175.502 179.684 175.853 179.049 176.556C178.414 177.259 178.097 178.131 178.097 179.174V189H174.221V178.902C174.221 177.882 173.949 177.066 173.405 176.454C172.884 175.819 172.09 175.502 171.025 175.502C169.982 175.502 169.144 175.853 168.509 176.556C167.897 177.236 167.591 178.109 167.591 179.174V189ZM196.118 178.902H204.244C204.199 177.859 203.825 176.987 203.122 176.284C202.442 175.581 201.456 175.23 200.164 175.23C198.986 175.23 198.034 175.604 197.308 176.352C196.583 177.077 196.186 177.927 196.118 178.902ZM204.686 183.22L208.018 184.274C207.542 185.793 206.647 187.051 205.332 188.048C204.04 189.023 202.442 189.51 200.538 189.51C198.181 189.51 196.175 188.705 194.52 187.096C192.888 185.487 192.072 183.333 192.072 180.636C192.072 178.097 192.866 176.012 194.452 174.38C196.062 172.748 197.954 171.932 200.13 171.932C202.669 171.932 204.652 172.714 206.08 174.278C207.508 175.819 208.222 177.905 208.222 180.534C208.222 181.237 208.188 181.656 208.12 181.792H196.016C196.062 183.039 196.515 184.07 197.376 184.886C198.26 185.702 199.314 186.11 200.538 186.11C202.669 186.11 204.052 185.147 204.686 183.22ZM215.935 179.446V189H211.991V172.442H215.833V174.652C216.355 173.745 217.046 173.077 217.907 172.646C218.791 172.193 219.732 171.966 220.729 171.966C222.679 171.966 224.163 172.578 225.183 173.802C226.203 175.026 226.713 176.601 226.713 178.528V189H222.769V179.208C222.769 178.097 222.497 177.213 221.953 176.556C221.409 175.876 220.548 175.536 219.369 175.536C218.281 175.536 217.431 175.91 216.819 176.658C216.23 177.383 215.935 178.313 215.935 179.446ZM236.513 167.376V172.442H239.947V175.944H236.513V183.628C236.513 184.353 236.683 184.886 237.023 185.226C237.363 185.543 237.896 185.702 238.621 185.702C239.074 185.702 239.528 185.657 239.981 185.566V188.83C239.392 189.079 238.587 189.204 237.567 189.204C236.026 189.204 234.813 188.773 233.929 187.912C233.045 187.028 232.603 185.815 232.603 184.274V175.944H229.543V172.442H230.393C231.232 172.442 231.866 172.204 232.297 171.728C232.728 171.252 232.943 170.629 232.943 169.858V167.376H236.513Z" fill="#56597A"/>
<path d="M120.303 56H115.265C114.57 56 114.006 56.5639 114.006 57.2594V62.381C114.006 63.0766 114.57 63.6405 115.266 63.6405C115.961 63.6405 116.525 63.0766 116.525 62.381V58.5189H120.303C120.999 58.5189 121.563 57.955 121.563 57.2594C121.563 56.5639 120.999 56 120.303 56Z" fill="#F78CB6"/>
<path d="M155.735 56H150.697C150.001 56 149.437 56.5639 149.437 57.2594C149.437 57.955 150.001 58.5189 150.697 58.5189H154.475V62.381C154.475 63.0766 155.039 63.6405 155.735 63.6405C156.43 63.6405 156.994 63.0766 156.994 62.381V57.2594C156.994 56.5639 156.43 56 155.735 56Z" fill="#F78CB6"/>
<path d="M120.303 96.469H116.525V92.6068C116.525 91.9113 115.961 91.3474 115.265 91.3474C114.57 91.3474 114.006 91.9113 114.006 92.6068V97.7285C114.006 98.424 114.57 98.9879 115.265 98.9879H120.303C120.999 98.9879 121.563 98.424 121.563 97.7285C121.563 97.0329 120.999 96.469 120.303 96.469Z" fill="#F78CB6"/>
<path d="M155.735 91.3474C155.039 91.3474 154.475 91.9113 154.475 92.6068V96.469H150.697C150.001 96.469 149.437 97.0329 149.437 97.7285C149.437 98.424 150.001 98.9879 150.697 98.9879H155.735C156.43 98.9879 156.994 98.424 156.994 97.7285V92.6068C156.994 91.9113 156.43 91.3474 155.735 91.3474Z" fill="#F78CB6"/>
<path d="M153.672 66.332L136.131 56.1697C135.741 55.9434 135.259 55.9434 134.869 56.1697L117.321 66.3319C116.934 66.556 116.693 66.9734 116.693 67.4208C116.693 67.4233 116.693 67.4259 116.693 67.4283V87.5782C116.693 88.0299 116.939 88.4527 117.334 88.6753L134.869 98.8303C135.058 98.9397 135.282 99 135.5 99C135.727 99 135.95 98.9356 136.131 98.8303L153.659 88.6752C153.662 88.6735 153.665 88.6718 153.668 88.6701C154.074 88.377 154.293 88.1307 154.299 87.5934C154.299 87.5883 154.3 87.5834 154.3 87.5783V67.4285C154.3 67.4259 154.3 67.4234 154.3 67.421C154.3 66.9731 154.058 66.5557 153.672 66.332ZM134.241 95.5554L120.482 87.5839L131.089 81.501C131.692 81.155 131.901 80.3853 131.555 79.782C131.209 79.1786 130.439 78.97 129.836 79.316L119.212 85.4042V69.5978L134.241 78.2289V95.5554ZM135.5 76.0475L120.48 67.4172L135.5 58.7149L150.52 67.4172L135.5 76.0475ZM151.789 85.4042L141.164 79.316C140.561 78.97 139.791 79.1785 139.445 79.7819C139.099 80.3853 139.308 81.1549 139.911 81.5009L150.518 87.5837L136.759 95.5553V78.2289L151.789 69.5978V85.4042H151.789Z" fill="#F78CB6"/>
<path d="M33.0054 230C36.3174 230 38.4774 227.712 38.4774 224.672C38.4774 221.648 36.3174 219.328 33.0054 219.328H29.3574V230H33.0054ZM33.0054 228.816H30.6854V220.512H33.0054C35.6454 220.512 37.1014 222.368 37.1014 224.672C37.1014 226.96 35.5974 228.816 33.0054 228.816ZM44.0005 230.192C45.2645 230.192 46.3045 229.776 47.0725 229.008L46.4965 228.224C45.8885 228.848 44.9925 229.2 44.1125 229.2C42.4485 229.2 41.4245 227.984 41.3285 226.528H47.5845V226.224C47.5845 223.904 46.2085 222.08 43.8725 222.08C41.6645 222.08 40.0645 223.888 40.0645 226.128C40.0645 228.544 41.7125 230.192 44.0005 230.192ZM46.4005 225.648H41.3285C41.3925 224.464 42.2085 223.072 43.8565 223.072C45.6165 223.072 46.3845 224.496 46.4005 225.648ZM52.9041 230L56.1201 222.272H54.8081L52.2481 228.608L49.6721 222.272H48.3761L51.5921 230H52.9041ZM60.8599 230.192C62.1239 230.192 63.1639 229.776 63.9319 229.008L63.3559 228.224C62.7479 228.848 61.8519 229.2 60.9719 229.2C59.3079 229.2 58.2839 227.984 58.1879 226.528H64.4439V226.224C64.4439 223.904 63.0679 222.08 60.7319 222.08C58.5239 222.08 56.9239 223.888 56.9239 226.128C56.9239 228.544 58.5719 230.192 60.8599 230.192ZM63.2599 225.648H58.1879C58.2519 224.464 59.0679 223.072 60.7159 223.072C62.4759 223.072 63.2439 224.496 63.2599 225.648ZM67.5875 230V219.328H66.3875V230H67.5875ZM73.3573 230.192C75.7093 230.192 77.1813 228.368 77.1813 226.128C77.1813 223.888 75.7093 222.08 73.3573 222.08C71.0053 222.08 69.5333 223.888 69.5333 226.128C69.5333 228.368 71.0053 230.192 73.3573 230.192ZM73.3573 229.12C71.7093 229.12 70.7812 227.712 70.7812 226.128C70.7812 224.56 71.7093 223.152 73.3573 223.152C75.0053 223.152 75.9173 224.56 75.9173 226.128C75.9173 227.712 75.0053 229.12 73.3573 229.12ZM82.9455 230.192C84.9775 230.192 86.3855 228.624 86.3855 226.128C86.3855 223.616 84.9775 222.08 82.9455 222.08C81.8575 222.08 80.8975 222.64 80.3375 223.424V222.272H79.1375V232.944H80.3375V228.832C80.9615 229.696 81.8895 230.192 82.9455 230.192ZM82.6415 229.12C81.6975 229.12 80.7535 228.544 80.3375 227.872V224.384C80.7535 223.712 81.6975 223.152 82.6415 223.152C84.1935 223.152 85.1215 224.416 85.1215 226.128C85.1215 227.84 84.1935 229.12 82.6415 229.12ZM98.8218 230V224.416C98.8218 222.864 98.0698 222.08 96.6618 222.08C95.5417 222.08 94.5018 222.816 94.0698 223.52C93.8458 222.72 93.1738 222.08 91.9898 222.08C90.8538 222.08 89.8138 222.896 89.4938 223.392V222.272H88.2938V230H89.4938V224.352C89.9098 223.728 90.7418 223.152 91.5258 223.152C92.5338 223.152 92.9498 223.776 92.9498 224.752V230H94.1498V224.336C94.5498 223.728 95.3978 223.152 96.1978 223.152C97.1898 223.152 97.6218 223.776 97.6218 224.752V230H98.8218ZM104.704 230.192C105.968 230.192 107.008 229.776 107.776 229.008L107.2 228.224C106.592 228.848 105.696 229.2 104.816 229.2C103.152 229.2 102.128 227.984 102.032 226.528H108.288V226.224C108.288 223.904 106.912 222.08 104.576 222.08C102.368 222.08 100.768 223.888 100.768 226.128C100.768 228.544 102.416 230.192 104.704 230.192ZM107.104 225.648H102.032C102.096 224.464 102.912 223.072 104.56 223.072C106.32 223.072 107.088 224.496 107.104 225.648ZM116.647 230V224.576C116.647 222.896 115.799 222.08 114.183 222.08C113.031 222.08 111.975 222.752 111.431 223.392V222.272H110.231V230H111.431V224.352C111.879 223.728 112.775 223.152 113.719 223.152C114.759 223.152 115.447 223.584 115.447 224.944V230H116.647ZM120.996 230.192C121.7 230.192 122.132 229.984 122.436 229.696L122.084 228.8C121.924 228.976 121.604 229.12 121.268 229.12C120.74 229.12 120.484 228.704 120.484 228.128V223.328H122.052V222.272H120.484V220.16H119.284V222.272H118.004V223.328H119.284V228.384C119.284 229.536 119.86 230.192 120.996 230.192ZM128.464 221.168C128.912 221.168 129.28 220.816 129.28 220.368C129.28 219.92 128.912 219.552 128.464 219.552C128.032 219.552 127.664 219.92 127.664 220.368C127.664 220.816 128.032 221.168 128.464 221.168ZM129.072 230V222.272H127.872V230H129.072ZM133.914 230.192C135.914 230.192 136.954 229.152 136.954 227.856C136.954 224.848 132.17 225.968 132.17 224.272C132.17 223.584 132.826 223.056 133.882 223.056C134.874 223.056 135.722 223.472 136.186 224.032L136.746 223.2C136.122 222.576 135.194 222.08 133.882 222.08C132.042 222.08 131.002 223.104 131.002 224.304C131.002 227.168 135.786 226.016 135.786 227.888C135.786 228.656 135.146 229.216 133.962 229.216C132.906 229.216 131.93 228.704 131.418 228.112L130.794 228.976C131.578 229.808 132.65 230.192 133.914 230.192ZM149.828 230V219.328H148.628V223.44C148.004 222.592 147.06 222.08 146.02 222.08C143.988 222.08 142.58 223.68 142.58 226.144C142.58 228.656 144.004 230.192 146.02 230.192C147.108 230.192 148.052 229.632 148.628 228.848V230H149.828ZM146.308 229.12C144.756 229.12 143.828 227.856 143.828 226.144C143.828 224.432 144.756 223.152 146.308 223.152C147.268 223.152 148.196 223.728 148.628 224.4V227.904C148.196 228.576 147.268 229.12 146.308 229.12ZM155.719 230.192C156.983 230.192 158.023 229.776 158.791 229.008L158.215 228.224C157.607 228.848 156.711 229.2 155.831 229.2C154.167 229.2 153.143 227.984 153.047 226.528H159.303V226.224C159.303 223.904 157.927 222.08 155.591 222.08C153.383 222.08 151.783 223.888 151.783 226.128C151.783 228.544 153.431 230.192 155.719 230.192ZM158.119 225.648H153.047C153.111 224.464 153.927 223.072 155.575 223.072C157.335 223.072 158.103 224.496 158.119 225.648ZM162.783 230V223.328H164.351V222.272H162.783V221.68C162.783 220.704 163.215 220.16 163.999 220.16C164.303 220.16 164.511 220.24 164.687 220.352L164.991 219.44C164.687 219.248 164.271 219.168 163.823 219.168C162.479 219.168 161.583 220.08 161.583 221.68V222.272H160.303V223.328H161.583V230H162.783ZM166.367 221.168C166.815 221.168 167.183 220.816 167.183 220.368C167.183 219.92 166.815 219.552 166.367 219.552C165.935 219.552 165.567 219.92 165.567 220.368C165.567 220.816 165.935 221.168 166.367 221.168ZM166.975 230V222.272H165.775V230H166.975ZM175.804 230V224.576C175.804 222.896 174.956 222.08 173.34 222.08C172.188 222.08 171.132 222.752 170.588 223.392V222.272H169.388V230H170.588V224.352C171.036 223.728 171.932 223.152 172.876 223.152C173.916 223.152 174.604 223.584 174.604 224.944V230H175.804ZM181.688 230.192C182.952 230.192 183.992 229.776 184.76 229.008L184.184 228.224C183.576 228.848 182.68 229.2 181.8 229.2C180.136 229.2 179.112 227.984 179.016 226.528H185.272V226.224C185.272 223.904 183.896 222.08 181.56 222.08C179.352 222.08 177.752 223.888 177.752 226.128C177.752 228.544 179.4 230.192 181.688 230.192ZM184.088 225.648H179.016C179.08 224.464 179.896 223.072 181.544 223.072C183.304 223.072 184.072 224.496 184.088 225.648ZM194.016 230V219.328H192.816V223.44C192.192 222.592 191.248 222.08 190.208 222.08C188.176 222.08 186.768 223.68 186.768 226.144C186.768 228.656 188.192 230.192 190.208 230.192C191.296 230.192 192.24 229.632 192.816 228.848V230H194.016ZM190.496 229.12C188.944 229.12 188.016 227.856 188.016 226.144C188.016 224.432 188.944 223.152 190.496 223.152C191.456 223.152 192.384 223.728 192.816 224.4V227.904C192.384 228.576 191.456 229.12 190.496 229.12ZM206.576 230V224.688C206.576 222.816 205.216 222.08 203.584 222.08C202.32 222.08 201.328 222.496 200.496 223.36L201.056 224.192C201.744 223.456 202.496 223.12 203.424 223.12C204.544 223.12 205.376 223.712 205.376 224.752V226.144C204.752 225.424 203.872 225.088 202.816 225.088C201.504 225.088 200.112 225.904 200.112 227.632C200.112 229.312 201.504 230.192 202.816 230.192C203.856 230.192 204.736 229.824 205.376 229.12V230H206.576ZM203.248 229.328C202.128 229.328 201.344 228.624 201.344 227.648C201.344 226.656 202.128 225.952 203.248 225.952C204.096 225.952 204.912 226.272 205.376 226.912V228.368C204.912 229.008 204.096 229.328 203.248 229.328ZM211.429 230.192C213.429 230.192 214.469 229.152 214.469 227.856C214.469 224.848 209.685 225.968 209.685 224.272C209.685 223.584 210.341 223.056 211.397 223.056C212.389 223.056 213.237 223.472 213.701 224.032L214.261 223.2C213.637 222.576 212.709 222.08 211.397 222.08C209.557 222.08 208.517 223.104 208.517 224.304C208.517 227.168 213.301 226.016 213.301 227.888C213.301 228.656 212.661 229.216 211.477 229.216C210.421 229.216 209.445 228.704 208.933 228.112L208.309 228.976C209.093 229.808 210.165 230.192 211.429 230.192ZM222.496 230.192C223.2 230.192 223.632 229.984 223.936 229.696L223.584 228.8C223.424 228.976 223.104 229.12 222.768 229.12C222.24 229.12 221.984 228.704 221.984 228.128V223.328H223.552V222.272H221.984V220.16H220.784V222.272H219.504V223.328H220.784V228.384C220.784 229.536 221.36 230.192 222.496 230.192ZM231.679 230V224.544C231.679 222.864 230.831 222.08 229.215 222.08C228.047 222.08 226.991 222.752 226.447 223.392V219.328H225.247V230H226.447V224.352C226.911 223.728 227.807 223.152 228.735 223.152C229.775 223.152 230.479 223.552 230.479 224.912V230H231.679ZM237.563 230.192C238.827 230.192 239.867 229.776 240.635 229.008L240.059 228.224C239.451 228.848 238.555 229.2 237.675 229.2C236.011 229.2 234.987 227.984 234.891 226.528H241.147V226.224C241.147 223.904 239.771 222.08 237.435 222.08C235.227 222.08 233.627 223.888 233.627 226.128C233.627 228.544 235.275 230.192 237.563 230.192ZM239.963 225.648H234.891C234.955 224.464 235.771 223.072 237.419 223.072C239.179 223.072 239.947 224.496 239.963 225.648ZM50.7502 254.192C52.7822 254.192 54.1902 252.624 54.1902 250.128C54.1902 247.616 52.7822 246.08 50.7502 246.08C49.6622 246.08 48.7022 246.64 48.1422 247.424V246.272H46.9422V256.944H48.1422V252.832C48.7662 253.696 49.6942 254.192 50.7502 254.192ZM50.4462 253.12C49.5022 253.12 48.5582 252.544 48.1422 251.872V248.384C48.5582 247.712 49.5022 247.152 50.4462 247.152C51.9982 247.152 52.9262 248.416 52.9262 250.128C52.9262 251.84 51.9982 253.12 50.4462 253.12ZM57.2984 254V248.528C57.6504 247.904 58.6584 247.296 59.3944 247.296C59.5864 247.296 59.7304 247.312 59.8744 247.344V246.112C58.8184 246.112 57.9224 246.704 57.2984 247.52V246.272H56.0984V254H57.2984ZM64.7557 254.192C67.1077 254.192 68.5797 252.368 68.5797 250.128C68.5797 247.888 67.1077 246.08 64.7557 246.08C62.4037 246.08 60.9317 247.888 60.9317 250.128C60.9317 252.368 62.4037 254.192 64.7557 254.192ZM64.7557 253.12C63.1077 253.12 62.1797 251.712 62.1797 250.128C62.1797 248.56 63.1077 247.152 64.7557 247.152C66.4037 247.152 67.3157 248.56 67.3157 250.128C67.3157 251.712 66.4037 253.12 64.7557 253.12ZM73.9439 254.192C75.3519 254.192 76.1839 253.616 76.7759 252.848L75.9759 252.112C75.4639 252.8 74.8079 253.12 74.0079 253.12C72.3599 253.12 71.3359 251.84 71.3359 250.128C71.3359 248.416 72.3599 247.152 74.0079 247.152C74.8079 247.152 75.4639 247.456 75.9759 248.16L76.7759 247.424C76.1839 246.656 75.3519 246.08 73.9439 246.08C71.6399 246.08 70.0879 247.84 70.0879 250.128C70.0879 252.432 71.6399 254.192 73.9439 254.192ZM81.9458 254.192C83.2098 254.192 84.2498 253.776 85.0178 253.008L84.4418 252.224C83.8338 252.848 82.9378 253.2 82.0578 253.2C80.3938 253.2 79.3698 251.984 79.2738 250.528H85.5298V250.224C85.5298 247.904 84.1538 246.08 81.8178 246.08C79.6098 246.08 78.0098 247.888 78.0098 250.128C78.0098 252.544 79.6578 254.192 81.9458 254.192ZM84.3458 249.648H79.2738C79.3378 248.464 80.1538 247.072 81.8018 247.072C83.5618 247.072 84.3298 248.496 84.3458 249.648ZM89.9214 254.192C91.9214 254.192 92.9614 253.152 92.9614 251.856C92.9614 248.848 88.1774 249.968 88.1774 248.272C88.1774 247.584 88.8334 247.056 89.8894 247.056C90.8814 247.056 91.7294 247.472 92.1934 248.032L92.7534 247.2C92.1294 246.576 91.2014 246.08 89.8894 246.08C88.0494 246.08 87.0094 247.104 87.0094 248.304C87.0094 251.168 91.7934 250.016 91.7934 251.888C91.7934 252.656 91.1534 253.216 89.9694 253.216C88.9134 253.216 87.9374 252.704 87.4254 252.112L86.8014 252.976C87.5854 253.808 88.6574 254.192 89.9214 254.192ZM97.3589 254.192C99.3589 254.192 100.399 253.152 100.399 251.856C100.399 248.848 95.6149 249.968 95.6149 248.272C95.6149 247.584 96.2709 247.056 97.3269 247.056C98.3189 247.056 99.1669 247.472 99.6309 248.032L100.191 247.2C99.5669 246.576 98.6389 246.08 97.3269 246.08C95.4869 246.08 94.4469 247.104 94.4469 248.304C94.4469 251.168 99.2309 250.016 99.2309 251.888C99.2309 252.656 98.5909 253.216 97.4069 253.216C96.3509 253.216 95.3749 252.704 94.8629 252.112L94.2389 252.976C95.0229 253.808 96.0949 254.192 97.3589 254.192ZM109.849 254.192C112.201 254.192 113.673 252.368 113.673 250.128C113.673 247.888 112.201 246.08 109.849 246.08C107.497 246.08 106.025 247.888 106.025 250.128C106.025 252.368 107.497 254.192 109.849 254.192ZM109.849 253.12C108.201 253.12 107.273 251.712 107.273 250.128C107.273 248.56 108.201 247.152 109.849 247.152C111.497 247.152 112.409 248.56 112.409 250.128C112.409 251.712 111.497 253.12 109.849 253.12ZM117.166 254V247.328H118.734V246.272H117.166V245.68C117.166 244.704 117.598 244.16 118.382 244.16C118.782 244.16 119.086 244.32 119.342 244.544L119.838 243.76C119.358 243.312 118.814 243.168 118.206 243.168C116.83 243.168 115.966 244.096 115.966 245.68V246.272H114.686V247.328H115.966V254H117.166ZM127.39 257.136C129.278 257.136 131.07 256.336 131.07 253.776V246.272H129.87V247.44C129.246 246.592 128.318 246.08 127.278 246.08C125.246 246.08 123.838 247.616 123.838 250.096C123.838 252.592 125.262 254.096 127.278 254.096C128.366 254.096 129.31 253.504 129.87 252.72V253.824C129.87 255.52 128.67 256.144 127.39 256.144C126.286 256.144 125.518 255.856 124.878 255.088L124.27 255.984C125.182 256.88 126.078 257.136 127.39 257.136ZM127.566 253.04C126.014 253.04 125.086 251.792 125.086 250.096C125.086 248.384 126.014 247.152 127.566 247.152C128.526 247.152 129.454 247.728 129.87 248.4V251.776C129.454 252.448 128.526 253.04 127.566 253.04ZM134.673 254V248.528C135.025 247.904 136.033 247.296 136.769 247.296C136.961 247.296 137.105 247.312 137.249 247.344V246.112C136.193 246.112 135.297 246.704 134.673 247.52V246.272H133.473V254H134.673ZM142.131 254.192C144.483 254.192 145.955 252.368 145.955 250.128C145.955 247.888 144.483 246.08 142.131 246.08C139.779 246.08 138.307 247.888 138.307 250.128C138.307 252.368 139.779 254.192 142.131 254.192ZM142.131 253.12C140.483 253.12 139.555 251.712 139.555 250.128C139.555 248.56 140.483 247.152 142.131 247.152C143.779 247.152 144.691 248.56 144.691 250.128C144.691 251.712 143.779 253.12 142.131 253.12ZM155.799 254L158.263 246.272H157.015L155.127 252.432L153.095 246.272H152.071L150.039 252.432L148.151 246.272H146.903L149.367 254H150.567L152.583 247.792L154.599 254H155.799ZM161.613 254.192C162.317 254.192 162.749 253.984 163.053 253.696L162.701 252.8C162.541 252.976 162.221 253.12 161.885 253.12C161.357 253.12 161.101 252.704 161.101 252.128V247.328H162.669V246.272H161.101V244.16H159.901V246.272H158.621V247.328H159.901V252.384C159.901 253.536 160.477 254.192 161.613 254.192ZM170.796 254V248.544C170.796 246.864 169.948 246.08 168.332 246.08C167.164 246.08 166.108 246.752 165.564 247.392V243.328H164.364V254H165.564V248.352C166.028 247.728 166.924 247.152 167.852 247.152C168.892 247.152 169.596 247.552 169.596 248.912V254H170.796ZM180.693 254.192C183.045 254.192 184.517 252.368 184.517 250.128C184.517 247.888 183.045 246.08 180.693 246.08C178.341 246.08 176.869 247.888 176.869 250.128C176.869 252.368 178.341 254.192 180.693 254.192ZM180.693 253.12C179.045 253.12 178.117 251.712 178.117 250.128C178.117 248.56 179.045 247.152 180.693 247.152C182.341 247.152 183.253 248.56 183.253 250.128C183.253 251.712 182.341 253.12 180.693 253.12ZM187.673 254V248.528C188.025 247.904 189.033 247.296 189.769 247.296C189.961 247.296 190.105 247.312 190.249 247.344V246.112C189.193 246.112 188.297 246.704 187.673 247.52V246.272H186.473V254H187.673ZM202.296 254V248.576C202.296 246.896 201.448 246.08 199.832 246.08C198.68 246.08 197.624 246.752 197.08 247.392V246.272H195.88V254H197.08V248.352C197.528 247.728 198.424 247.152 199.368 247.152C200.408 247.152 201.096 247.584 201.096 248.944V254H202.296ZM208.18 254.192C209.444 254.192 210.484 253.776 211.252 253.008L210.676 252.224C210.068 252.848 209.172 253.2 208.292 253.2C206.628 253.2 205.604 251.984 205.508 250.528H211.764V250.224C211.764 247.904 210.388 246.08 208.052 246.08C205.844 246.08 204.244 247.888 204.244 250.128C204.244 252.544 205.892 254.192 208.18 254.192ZM210.58 249.648H205.508C205.572 248.464 206.388 247.072 208.036 247.072C209.796 247.072 210.564 248.496 210.58 249.648ZM221.596 254L224.06 246.272H222.812L220.924 252.432L218.892 246.272H217.868L215.836 252.432L213.948 246.272H212.7L215.164 254H216.364L218.38 247.792L220.396 254H221.596Z" fill="#919299"/>
</svg>
