<svg width="234" height="98" viewBox="0 0 234 98" fill="none" xmlns="http://www.w3.org/2000/svg">
<g filter="url(#filter0_d_1_146)">
<rect x="10" y="10" width="194" height="58" rx="4" fill="#F78CB6"/>
<path d="M37.6 46H28.7V31.82H31.1V43.72H37.6V46ZM41.5747 40.06H46.3547C46.328 39.4467 46.108 38.9333 45.6947 38.52C45.2947 38.1067 44.7147 37.9 43.9547 37.9C43.2614 37.9 42.7014 38.12 42.2747 38.56C41.848 38.9867 41.6147 39.4867 41.5747 40.06ZM46.6147 42.6L48.5747 43.22C48.2947 44.1133 47.768 44.8533 46.9947 45.44C46.2347 46.0133 45.2947 46.3 44.1747 46.3C42.788 46.3 41.608 45.8267 40.6347 44.88C39.6747 43.9333 39.1947 42.6667 39.1947 41.08C39.1947 39.5867 39.6614 38.36 40.5947 37.4C41.5414 36.44 42.6547 35.96 43.9347 35.96C45.428 35.96 46.5947 36.42 47.4347 37.34C48.2747 38.2467 48.6947 39.4733 48.6947 41.02C48.6947 41.4333 48.6747 41.68 48.6347 41.76H41.5147C41.5414 42.4933 41.808 43.1 42.3147 43.58C42.8347 44.06 43.4547 44.3 44.1747 44.3C45.428 44.3 46.2414 43.7333 46.6147 42.6ZM50.7117 43.36C50.7117 42.5333 50.9784 41.8733 51.5117 41.38C52.0584 40.8733 52.7717 40.5533 53.6517 40.42L56.1517 40.04C56.6317 39.9733 56.8717 39.74 56.8717 39.34C56.8717 38.9 56.7184 38.5467 56.4117 38.28C56.1051 38 55.6451 37.86 55.0317 37.86C54.4451 37.86 53.9784 38.0267 53.6317 38.36C53.2851 38.68 53.0851 39.1 53.0317 39.62L50.9117 39.14C51.0051 38.26 51.4251 37.5133 52.1717 36.9C52.9184 36.2733 53.8651 35.96 55.0117 35.96C56.4251 35.96 57.4651 36.3 58.1317 36.98C58.8117 37.66 59.1517 38.5333 59.1517 39.6V44.44C59.1517 45.08 59.1917 45.6 59.2717 46H57.1117C57.0451 45.8 57.0117 45.3867 57.0117 44.76C56.3717 45.7867 55.3717 46.3 54.0117 46.3C53.0251 46.3 52.2251 46.0133 51.6117 45.44C51.0117 44.8533 50.7117 44.16 50.7117 43.36ZM54.4517 44.48C55.1717 44.48 55.7517 44.2867 56.1917 43.9C56.6451 43.5 56.8717 42.8533 56.8717 41.96V41.52L54.3317 41.9C53.4651 42.0467 53.0317 42.4867 53.0317 43.22C53.0317 43.5667 53.1584 43.8667 53.4117 44.12C53.6651 44.36 54.0117 44.48 54.4517 44.48ZM68.0563 36.2V38.56C67.7896 38.52 67.5363 38.5 67.2963 38.5C65.5496 38.5 64.6763 39.4533 64.6763 41.36V46H62.3563V36.26H64.6163V37.82C64.8429 37.3 65.2096 36.8933 65.7163 36.6C66.2229 36.2933 66.7963 36.14 67.4363 36.14C67.6496 36.14 67.8563 36.16 68.0563 36.2ZM72.713 40.38V46H70.393V36.26H72.653V37.56C72.9596 37.0267 73.3663 36.6333 73.873 36.38C74.393 36.1133 74.9463 35.98 75.533 35.98C76.6796 35.98 77.553 36.34 78.153 37.06C78.753 37.78 79.053 38.7067 79.053 39.84V46H76.733V40.24C76.733 39.5867 76.573 39.0667 76.253 38.68C75.933 38.28 75.4263 38.08 74.733 38.08C74.093 38.08 73.593 38.3 73.233 38.74C72.8863 39.1667 72.713 39.7133 72.713 40.38ZM89.9383 46H87.6383V36.26H89.8583V37.5C90.1249 37.02 90.5249 36.6467 91.0583 36.38C91.6049 36.1133 92.1649 35.98 92.7383 35.98C93.3916 35.98 93.9783 36.1267 94.4983 36.42C95.0183 36.7133 95.4049 37.14 95.6583 37.7C96.3383 36.5533 97.3916 35.98 98.8183 35.98C99.7783 35.98 100.592 36.2933 101.258 36.92C101.925 37.5467 102.258 38.4667 102.258 39.68V46H100.018V40.06C100.018 39.46 99.8583 38.98 99.5383 38.62C99.2316 38.2467 98.7649 38.06 98.1383 38.06C97.5383 38.06 97.0516 38.2667 96.6783 38.68C96.3049 39.0933 96.1183 39.6067 96.1183 40.22V46H93.8383V40.06C93.8383 39.46 93.6783 38.98 93.3583 38.62C93.0516 38.2467 92.5849 38.06 91.9583 38.06C91.3449 38.06 90.8516 38.2667 90.4783 38.68C90.1183 39.08 89.9383 39.5933 89.9383 40.22V46ZM107.839 43.4C108.373 43.9467 109.019 44.22 109.779 44.22C110.539 44.22 111.179 43.9467 111.699 43.4C112.233 42.8533 112.499 42.0933 112.499 41.12C112.499 40.16 112.233 39.4133 111.699 38.88C111.179 38.3333 110.539 38.06 109.779 38.06C109.019 38.06 108.373 38.3333 107.839 38.88C107.319 39.4133 107.059 40.16 107.059 41.12C107.059 42.08 107.319 42.84 107.839 43.4ZM109.779 35.96C111.246 35.96 112.453 36.4467 113.399 37.42C114.359 38.3933 114.839 39.6267 114.839 41.12C114.839 42.6133 114.359 43.8533 113.399 44.84C112.453 45.8133 111.246 46.3 109.779 46.3C108.326 46.3 107.119 45.8133 106.159 44.84C105.213 43.8533 104.739 42.6133 104.739 41.12C104.739 39.6267 105.213 38.3933 106.159 37.42C107.119 36.4467 108.326 35.96 109.779 35.96ZM123.181 36.2V38.56C122.915 38.52 122.661 38.5 122.421 38.5C120.675 38.5 119.801 39.4533 119.801 41.36V46H117.481V36.26H119.741V37.82C119.968 37.3 120.335 36.8933 120.841 36.6C121.348 36.2933 121.921 36.14 122.561 36.14C122.775 36.14 122.981 36.16 123.181 36.2ZM127.04 40.06H131.82C131.794 39.4467 131.574 38.9333 131.16 38.52C130.76 38.1067 130.18 37.9 129.42 37.9C128.727 37.9 128.167 38.12 127.74 38.56C127.314 38.9867 127.08 39.4867 127.04 40.06ZM132.08 42.6L134.04 43.22C133.76 44.1133 133.234 44.8533 132.46 45.44C131.7 46.0133 130.76 46.3 129.64 46.3C128.254 46.3 127.074 45.8267 126.1 44.88C125.14 43.9333 124.66 42.6667 124.66 41.08C124.66 39.5867 125.127 38.36 126.06 37.4C127.007 36.44 128.12 35.96 129.4 35.96C130.894 35.96 132.06 36.42 132.9 37.34C133.74 38.2467 134.16 39.4733 134.16 41.02C134.16 41.4333 134.14 41.68 134.1 41.76H126.98C127.007 42.4933 127.274 43.1 127.78 43.58C128.3 44.06 128.92 44.3 129.64 44.3C130.894 44.3 131.707 43.7333 132.08 42.6Z" fill="white"/>
<rect x="162.75" y="25.75" width="26.5" height="26.5" rx="1.25" fill="#FFC1DA" fill-opacity="0.28" stroke="white" stroke-width="1.5"/>
<path d="M152 37.4419C151.448 37.4419 151 37.8896 151 38.4419C151 38.9941 151.448 39.4419 152 39.4419V37.4419ZM177.628 38.4419L178.314 39.1691C178.521 38.974 178.635 38.7 178.628 38.4157C178.62 38.1314 178.492 37.8638 178.275 37.6797L177.628 38.4419ZM170.535 43.7611C170.133 44.1402 170.115 44.7731 170.494 45.1747C170.873 45.5764 171.506 45.5947 171.907 45.2156L170.535 43.7611ZM171.868 32.2378C171.447 31.8803 170.816 31.9317 170.459 32.3526C170.101 32.7736 170.153 33.4046 170.574 33.7622L171.868 32.2378ZM152 39.4419H177.628V37.4419H152V39.4419ZM176.942 37.7146L170.535 43.7611L171.907 45.2156L178.314 39.1691L176.942 37.7146ZM178.275 37.6797L171.868 32.2378L170.574 33.7622L176.981 39.204L178.275 37.6797Z" fill="white"/>
</g>
<defs>
<filter id="filter0_d_1_146" x="0" y="0" width="234" height="98" filterUnits="userSpaceOnUse" color-interpolation-filters="sRGB">
<feFlood flood-opacity="0" result="BackgroundImageFix"/>
<feColorMatrix in="SourceAlpha" type="matrix" values="0 0 0 0 0 0 0 0 0 0 0 0 0 0 0 0 0 0 127 0" result="hardAlpha"/>
<feOffset dx="10" dy="10"/>
<feGaussianBlur stdDeviation="10"/>
<feColorMatrix type="matrix" values="0 0 0 0 0.980392 0 0 0 0 0.552941 0 0 0 0 0.721569 0 0 0 0.2 0"/>
<feBlend mode="normal" in2="BackgroundImageFix" result="effect1_dropShadow_1_146"/>
<feBlend mode="normal" in="SourceGraphic" in2="effect1_dropShadow_1_146" result="shape"/>
</filter>
</defs>
</svg>
