<svg width="270" height="307" viewBox="0 0 270 307" fill="none" xmlns="http://www.w3.org/2000/svg">
<rect width="270" height="307" rx="8" fill="#FFF1F9"/>
<path d="M61.038 189H56.89V164.894H61.038V189ZM70.4217 189H66.4777V164.384H70.4217V189ZM79.453 189H75.509V164.384H79.453V189ZM95.2186 187.164C94.8333 187.889 94.1986 188.456 93.3146 188.864C92.4533 189.272 91.524 189.476 90.5266 189.476C88.6 189.476 87.07 188.853 85.9366 187.606C84.826 186.359 84.2706 184.784 84.2706 182.88V172.442H88.2146V182.166C88.2146 183.277 88.4866 184.183 89.0306 184.886C89.5746 185.589 90.4133 185.94 91.5466 185.94C92.6573 185.94 93.5073 185.6 94.0966 184.92C94.7086 184.24 95.0146 183.345 95.0146 182.234V172.442H98.9586V185.974C98.9586 186.971 99.0153 187.98 99.1286 189H95.3546C95.264 188.501 95.2186 187.889 95.2186 187.164ZM102.602 184.512L106.036 183.56C106.104 184.353 106.432 185.022 107.022 185.566C107.611 186.11 108.404 186.382 109.402 186.382C110.172 186.382 110.773 186.201 111.204 185.838C111.657 185.475 111.884 185.022 111.884 184.478C111.884 183.526 111.238 182.914 109.946 182.642L107.498 182.098C106.07 181.781 104.97 181.191 104.2 180.33C103.429 179.469 103.044 178.449 103.044 177.27C103.044 175.819 103.633 174.573 104.812 173.53C105.99 172.465 107.43 171.932 109.13 171.932C110.218 171.932 111.181 172.091 112.02 172.408C112.858 172.725 113.504 173.145 113.958 173.666C114.434 174.165 114.796 174.652 115.046 175.128C115.295 175.604 115.454 176.08 115.522 176.556L112.19 177.508C112.099 176.873 111.804 176.307 111.306 175.808C110.83 175.287 110.104 175.026 109.13 175.026C108.45 175.026 107.883 175.219 107.43 175.604C106.976 175.967 106.75 176.409 106.75 176.93C106.75 177.859 107.305 178.437 108.416 178.664L110.932 179.174C112.473 179.514 113.652 180.126 114.468 181.01C115.284 181.894 115.692 182.959 115.692 184.206C115.692 185.589 115.136 186.824 114.026 187.912C112.938 188.977 111.408 189.51 109.436 189.51C108.302 189.51 107.282 189.34 106.376 189C105.492 188.66 104.789 188.229 104.268 187.708C103.769 187.164 103.372 186.631 103.078 186.11C102.806 185.566 102.647 185.033 102.602 184.512ZM124.601 167.376V172.442H128.035V175.944H124.601V183.628C124.601 184.353 124.771 184.886 125.111 185.226C125.451 185.543 125.983 185.702 126.709 185.702C127.162 185.702 127.615 185.657 128.069 185.566V188.83C127.479 189.079 126.675 189.204 125.655 189.204C124.113 189.204 122.901 188.773 122.017 187.912C121.133 187.028 120.691 185.815 120.691 184.274V175.944H117.631V172.442H118.481C119.319 172.442 119.954 172.204 120.385 171.728C120.815 171.252 121.031 170.629 121.031 169.858V167.376H124.601ZM141.478 172.34V176.352C141.025 176.284 140.594 176.25 140.186 176.25C137.217 176.25 135.732 177.871 135.732 181.112V189H131.788V172.442H135.63V175.094C136.016 174.21 136.639 173.519 137.5 173.02C138.362 172.499 139.336 172.238 140.424 172.238C140.787 172.238 141.138 172.272 141.478 172.34ZM143.784 184.512C143.784 183.107 144.237 181.985 145.144 181.146C146.073 180.285 147.286 179.741 148.782 179.514L153.032 178.868C153.848 178.755 154.256 178.358 154.256 177.678C154.256 176.93 153.995 176.329 153.474 175.876C152.953 175.4 152.171 175.162 151.128 175.162C150.131 175.162 149.337 175.445 148.748 176.012C148.159 176.556 147.819 177.27 147.728 178.154L144.124 177.338C144.283 175.842 144.997 174.573 146.266 173.53C147.535 172.465 149.145 171.932 151.094 171.932C153.497 171.932 155.265 172.51 156.398 173.666C157.554 174.822 158.132 176.307 158.132 178.12V186.348C158.132 187.436 158.2 188.32 158.336 189H154.664C154.551 188.66 154.494 187.957 154.494 186.892C153.406 188.637 151.706 189.51 149.394 189.51C147.717 189.51 146.357 189.023 145.314 188.048C144.294 187.051 143.784 185.872 143.784 184.512ZM150.142 186.416C151.366 186.416 152.352 186.087 153.1 185.43C153.871 184.75 154.256 183.651 154.256 182.132V181.384L149.938 182.03C148.465 182.279 147.728 183.027 147.728 184.274C147.728 184.863 147.943 185.373 148.374 185.804C148.805 186.212 149.394 186.416 150.142 186.416ZM167.831 167.376V172.442H171.265V175.944H167.831V183.628C167.831 184.353 168.001 184.886 168.341 185.226C168.681 185.543 169.214 185.702 169.939 185.702C170.393 185.702 170.846 185.657 171.299 185.566V188.83C170.71 189.079 169.905 189.204 168.885 189.204C167.344 189.204 166.131 188.773 165.247 187.912C164.363 187.028 163.921 185.815 163.921 184.274V175.944H160.861V172.442H161.711C162.55 172.442 163.185 172.204 163.615 171.728C164.046 171.252 164.261 170.629 164.261 169.858V167.376H167.831ZM179.228 189H175.318V172.442H179.228V189ZM175.454 168.43C174.955 167.931 174.706 167.331 174.706 166.628C174.706 165.925 174.955 165.325 175.454 164.826C175.952 164.305 176.553 164.044 177.256 164.044C177.981 164.044 178.593 164.293 179.092 164.792C179.59 165.291 179.84 165.903 179.84 166.628C179.84 167.331 179.59 167.931 179.092 168.43C178.593 168.929 177.981 169.178 177.256 169.178C176.553 169.178 175.952 168.929 175.454 168.43ZM188.294 184.58C189.2 185.509 190.3 185.974 191.592 185.974C192.884 185.974 193.972 185.509 194.856 184.58C195.762 183.651 196.216 182.359 196.216 180.704C196.216 179.072 195.762 177.803 194.856 176.896C193.972 175.967 192.884 175.502 191.592 175.502C190.3 175.502 189.2 175.967 188.294 176.896C187.41 177.803 186.968 179.072 186.968 180.704C186.968 182.336 187.41 183.628 188.294 184.58ZM191.592 171.932C194.085 171.932 196.136 172.759 197.746 174.414C199.378 176.069 200.194 178.165 200.194 180.704C200.194 183.243 199.378 185.351 197.746 187.028C196.136 188.683 194.085 189.51 191.592 189.51C189.121 189.51 187.07 188.683 185.438 187.028C183.828 185.351 183.024 183.243 183.024 180.704C183.024 178.165 183.828 176.069 185.438 174.414C187.07 172.759 189.121 171.932 191.592 171.932ZM207.949 179.446V189H204.005V172.442H207.847V174.652C208.368 173.745 209.06 173.077 209.921 172.646C210.805 172.193 211.746 171.966 212.743 171.966C214.692 171.966 216.177 172.578 217.197 173.802C218.217 175.026 218.727 176.601 218.727 178.528V189H214.783V179.208C214.783 178.097 214.511 177.213 213.967 176.556C213.423 175.876 212.562 175.536 211.383 175.536C210.295 175.536 209.445 175.91 208.833 176.658C208.244 177.383 207.949 178.313 207.949 179.446Z" fill="#56597A"/>
<path d="M151.441 73.1472L151.784 72.9339L156.26 70.1477L156.392 70.36L156.26 70.1477C156.564 69.9583 156.749 69.6255 156.75 69.2672C156.75 68.9087 156.566 68.5754 156.263 68.3851L156.395 68.1732L156.263 68.3851L135.552 55.4086L135.684 55.1971L135.552 55.4086C135.214 55.1971 134.786 55.1971 134.448 55.4086L134.316 55.1967L134.448 55.4086L113.737 68.3851C113.434 68.5753 113.25 68.9087 113.25 69.2672L151.441 73.1472ZM151.441 73.1472L151.784 73.359M151.441 73.1472L151.784 73.359M156.392 78.0944L156.26 77.8822L151.784 80.6683L151.441 80.8816L151.784 81.0934L156.256 83.8499C156.562 84.0384 156.749 84.3715 156.75 84.7306C156.751 85.0898 156.567 85.4242 156.263 85.6149L135.552 98.5914L135.684 98.8033L135.552 98.5915C135.383 98.6972 135.192 98.75 135 98.75C134.808 98.75 134.617 98.6972 134.448 98.5914L113.737 85.6149L113.605 85.8268L113.737 85.6149C113.434 85.4248 113.25 85.0919 113.25 84.7339C113.25 84.3758 113.435 84.0431 113.738 83.8533L118.186 81.0735L118.526 80.8611L118.186 80.6493L113.74 77.8823C113.74 77.8823 113.74 77.8823 113.74 77.8822C113.436 77.6927 113.25 77.3596 113.25 77.001C113.25 76.6424 113.434 76.309 113.738 76.119L118.186 73.339L118.526 73.1265L118.186 72.9147L113.74 70.1477L113.74 70.1477C113.436 69.9584 113.251 69.6256 113.25 69.2672L156.392 78.0944ZM156.392 78.0944L156.26 77.8822C156.565 77.6921 156.751 77.3575 156.75 76.9978C156.749 76.6381 156.562 76.3043 156.256 76.1155L151.784 73.359M156.392 78.0944L151.784 73.359M116.59 69.0503L116.251 69.2628L116.591 69.4744L134.868 80.8502L135 80.9325L135.132 80.8502L153.409 69.4744L153.749 69.2629L153.41 69.0503L135.133 57.5986L135 57.5154L134.867 57.5986L116.59 69.0503ZM153.402 84.9552L153.742 84.7416L153.4 84.5306L149.602 82.1894L149.47 82.1081L149.339 82.1899L135.549 90.7728C135.381 90.8774 135.191 90.9297 135 90.9297C134.809 90.9297 134.619 90.8774 134.451 90.7728L120.623 82.1662L120.491 82.0838L120.358 82.1665L116.587 84.5238L116.248 84.7355L116.586 84.9477L134.867 96.4016L135 96.4848L135.133 96.4016L153.402 84.9552ZM134.868 88.5846L135 88.6668L135.132 88.5846L153.395 77.2176L153.738 77.0043L153.394 76.7925L149.602 74.455L149.47 74.3738L149.339 74.4556L135.549 83.0385C135.381 83.1431 135.191 83.1954 135 83.1954C134.809 83.1954 134.619 83.1431 134.451 83.0385L120.623 74.4319L120.491 74.3495L120.358 74.4321L116.592 76.7859L116.253 76.9983L116.593 77.2101L134.868 88.5846Z" fill="#F78CB6" stroke="#F78CB6" stroke-width="0.5"/>
<path d="M42.384 230L38.08 219.328H36.432L32.144 230H33.664L34.608 227.632H39.92L40.864 230H42.384ZM39.52 226.448H34.992L37.264 220.704L39.52 226.448ZM50.1473 230V224.576C50.1473 222.896 49.2993 222.08 47.6833 222.08C46.5312 222.08 45.4753 222.752 44.9313 223.392V222.272H43.7313V230H44.9313V224.352C45.3793 223.728 46.2753 223.152 47.2193 223.152C48.2593 223.152 48.9473 223.584 48.9473 224.944V230H50.1473ZM57.2608 221.168C57.7088 221.168 58.0768 220.816 58.0768 220.368C58.0768 219.92 57.7088 219.552 57.2608 219.552C56.8288 219.552 56.4608 219.92 56.4608 220.368C56.4608 220.816 56.8288 221.168 57.2608 221.168ZM57.8688 230V222.272H56.6688V230H57.8688ZM61.4625 230V219.328H60.2625V230H61.4625ZM65.0563 230V219.328H63.8563V230H65.0563ZM73.866 230V222.272H72.666V227.952C72.218 228.576 71.322 229.12 70.378 229.12C69.338 229.12 68.65 228.72 68.65 227.36V222.272H67.45V227.728C67.45 229.408 68.298 230.192 69.914 230.192C71.066 230.192 72.074 229.584 72.666 228.912V230H73.866ZM78.7105 230.192C80.7105 230.192 81.7505 229.152 81.7505 227.856C81.7505 224.848 76.9665 225.968 76.9665 224.272C76.9665 223.584 77.6225 223.056 78.6785 223.056C79.6705 223.056 80.5185 223.472 80.9825 224.032L81.5425 223.2C80.9185 222.576 79.9905 222.08 78.6785 222.08C76.8385 222.08 75.7985 223.104 75.7985 224.304C75.7985 227.168 80.5825 226.016 80.5825 227.888C80.5825 228.656 79.9425 229.216 78.7585 229.216C77.7025 229.216 76.7265 228.704 76.2145 228.112L75.5905 228.976C76.3745 229.808 77.4465 230.192 78.7105 230.192ZM85.652 230.192C86.356 230.192 86.788 229.984 87.092 229.696L86.74 228.8C86.58 228.976 86.26 229.12 85.924 229.12C85.396 229.12 85.14 228.704 85.14 228.128V223.328H86.708V222.272H85.14V220.16H83.94V222.272H82.66V223.328H83.94V228.384C83.94 229.536 84.516 230.192 85.652 230.192ZM89.6031 230V224.528C89.9551 223.904 90.9631 223.296 91.6991 223.296C91.8911 223.296 92.0351 223.312 92.1791 223.344V222.112C91.1231 222.112 90.2271 222.704 89.6031 223.52V222.272H88.4031V230H89.6031ZM99.7164 230V224.688C99.7164 222.816 98.3564 222.08 96.7244 222.08C95.4604 222.08 94.4684 222.496 93.6364 223.36L94.1964 224.192C94.8844 223.456 95.6364 223.12 96.5644 223.12C97.6844 223.12 98.5164 223.712 98.5164 224.752V226.144C97.8924 225.424 97.0124 225.088 95.9564 225.088C94.6444 225.088 93.2524 225.904 93.2524 227.632C93.2524 229.312 94.6444 230.192 95.9564 230.192C96.9964 230.192 97.8764 229.824 98.5164 229.12V230H99.7164ZM96.3884 229.328C95.2684 229.328 94.4844 228.624 94.4844 227.648C94.4844 226.656 95.2684 225.952 96.3884 225.952C97.2364 225.952 98.0524 226.272 98.5164 226.912V228.368C98.0524 229.008 97.2364 229.328 96.3884 229.328ZM104.074 230.192C104.778 230.192 105.21 229.984 105.514 229.696L105.162 228.8C105.002 228.976 104.682 229.12 104.346 229.12C103.818 229.12 103.562 228.704 103.562 228.128V223.328H105.13V222.272H103.562V220.16H102.362V222.272H101.082V223.328H102.362V228.384C102.362 229.536 102.938 230.192 104.074 230.192ZM107.417 221.168C107.865 221.168 108.233 220.816 108.233 220.368C108.233 219.92 107.865 219.552 107.417 219.552C106.985 219.552 106.617 219.92 106.617 220.368C106.617 220.816 106.985 221.168 107.417 221.168ZM108.025 230V222.272H106.825V230H108.025ZM113.795 230.192C116.147 230.192 117.619 228.368 117.619 226.128C117.619 223.888 116.147 222.08 113.795 222.08C111.443 222.08 109.971 223.888 109.971 226.128C109.971 228.368 111.443 230.192 113.795 230.192ZM113.795 229.12C112.147 229.12 111.219 227.712 111.219 226.128C111.219 224.56 112.147 223.152 113.795 223.152C115.443 223.152 116.355 224.56 116.355 226.128C116.355 227.712 115.443 229.12 113.795 229.12ZM125.991 230V224.576C125.991 222.896 125.143 222.08 123.527 222.08C122.375 222.08 121.319 222.752 120.775 223.392V222.272H119.575V230H120.775V224.352C121.223 223.728 122.119 223.152 123.063 223.152C124.103 223.152 124.791 223.584 124.791 224.944V230H125.991ZM133.105 221.168C133.553 221.168 133.921 220.816 133.921 220.368C133.921 219.92 133.553 219.552 133.105 219.552C132.673 219.552 132.305 219.92 132.305 220.368C132.305 220.816 132.673 221.168 133.105 221.168ZM133.713 230V222.272H132.513V230H133.713ZM138.554 230.192C140.554 230.192 141.594 229.152 141.594 227.856C141.594 224.848 136.81 225.968 136.81 224.272C136.81 223.584 137.466 223.056 138.522 223.056C139.514 223.056 140.362 223.472 140.826 224.032L141.386 223.2C140.762 222.576 139.834 222.08 138.522 222.08C136.682 222.08 135.642 223.104 135.642 224.304C135.642 227.168 140.426 226.016 140.426 227.888C140.426 228.656 139.786 229.216 138.602 229.216C137.546 229.216 136.57 228.704 136.058 228.112L135.434 228.976C136.218 229.808 137.29 230.192 138.554 230.192ZM153.701 230V224.688C153.701 222.816 152.341 222.08 150.709 222.08C149.445 222.08 148.453 222.496 147.621 223.36L148.181 224.192C148.869 223.456 149.621 223.12 150.549 223.12C151.669 223.12 152.501 223.712 152.501 224.752V226.144C151.877 225.424 150.997 225.088 149.941 225.088C148.629 225.088 147.237 225.904 147.237 227.632C147.237 229.312 148.629 230.192 149.941 230.192C150.981 230.192 151.861 229.824 152.501 229.12V230H153.701ZM150.373 229.328C149.253 229.328 148.469 228.624 148.469 227.648C148.469 226.656 149.253 225.952 150.373 225.952C151.221 225.952 152.037 226.272 152.501 226.912V228.368C152.037 229.008 151.221 229.328 150.373 229.328ZM167.031 230V219.328H165.831V223.44C165.207 222.592 164.263 222.08 163.223 222.08C161.191 222.08 159.783 223.68 159.783 226.144C159.783 228.656 161.207 230.192 163.223 230.192C164.311 230.192 165.255 229.632 165.831 228.848V230H167.031ZM163.511 229.12C161.959 229.12 161.031 227.856 161.031 226.144C161.031 224.432 161.959 223.152 163.511 223.152C164.471 223.152 165.399 223.728 165.831 224.4V227.904C165.399 228.576 164.471 229.12 163.511 229.12ZM172.922 230.192C174.186 230.192 175.226 229.776 175.994 229.008L175.418 228.224C174.81 228.848 173.914 229.2 173.034 229.2C171.37 229.2 170.346 227.984 170.25 226.528H176.506V226.224C176.506 223.904 175.13 222.08 172.794 222.08C170.586 222.08 168.986 223.888 168.986 226.128C168.986 228.544 170.634 230.192 172.922 230.192ZM175.322 225.648H170.25C170.314 224.464 171.13 223.072 172.778 223.072C174.538 223.072 175.306 224.496 175.322 225.648ZM181.858 230.192C183.266 230.192 184.098 229.616 184.69 228.848L183.89 228.112C183.378 228.8 182.722 229.12 181.922 229.12C180.274 229.12 179.25 227.84 179.25 226.128C179.25 224.416 180.274 223.152 181.922 223.152C182.722 223.152 183.378 223.456 183.89 224.16L184.69 223.424C184.098 222.656 183.266 222.08 181.858 222.08C179.554 222.08 178.002 223.84 178.002 226.128C178.002 228.432 179.554 230.192 181.858 230.192ZM189.748 230.192C192.1 230.192 193.572 228.368 193.572 226.128C193.572 223.888 192.1 222.08 189.748 222.08C187.396 222.08 185.924 223.888 185.924 226.128C185.924 228.368 187.396 230.192 189.748 230.192ZM189.748 229.12C188.1 229.12 187.172 227.712 187.172 226.128C187.172 224.56 188.1 223.152 189.748 223.152C191.396 223.152 192.308 224.56 192.308 226.128C192.308 227.712 191.396 229.12 189.748 229.12ZM196.728 230V224.528C197.08 223.904 198.088 223.296 198.824 223.296C199.016 223.296 199.16 223.312 199.304 223.344V222.112C198.248 222.112 197.352 222.704 196.728 223.52V222.272H195.528V230H196.728ZM206.841 230V224.688C206.841 222.816 205.481 222.08 203.849 222.08C202.585 222.08 201.593 222.496 200.761 223.36L201.321 224.192C202.009 223.456 202.761 223.12 203.689 223.12C204.809 223.12 205.641 223.712 205.641 224.752V226.144C205.017 225.424 204.137 225.088 203.081 225.088C201.769 225.088 200.377 225.904 200.377 227.632C200.377 229.312 201.769 230.192 203.081 230.192C204.121 230.192 205.001 229.824 205.641 229.12V230H206.841ZM203.513 229.328C202.393 229.328 201.609 228.624 201.609 227.648C201.609 226.656 202.393 225.952 203.513 225.952C204.361 225.952 205.177 226.272 205.641 226.912V228.368C205.177 229.008 204.361 229.328 203.513 229.328ZM211.199 230.192C211.903 230.192 212.335 229.984 212.639 229.696L212.287 228.8C212.127 228.976 211.807 229.12 211.471 229.12C210.943 229.12 210.687 228.704 210.687 228.128V223.328H212.255V222.272H210.687V220.16H209.487V222.272H208.207V223.328H209.487V228.384C209.487 229.536 210.063 230.192 211.199 230.192ZM214.542 221.168C214.99 221.168 215.358 220.816 215.358 220.368C215.358 219.92 214.99 219.552 214.542 219.552C214.11 219.552 213.742 219.92 213.742 220.368C213.742 220.816 214.11 221.168 214.542 221.168ZM215.15 230V222.272H213.95V230H215.15ZM220.92 230.192C223.272 230.192 224.744 228.368 224.744 226.128C224.744 223.888 223.272 222.08 220.92 222.08C218.568 222.08 217.096 223.888 217.096 226.128C217.096 228.368 218.568 230.192 220.92 230.192ZM220.92 229.12C219.272 229.12 218.344 227.712 218.344 226.128C218.344 224.56 219.272 223.152 220.92 223.152C222.568 223.152 223.48 224.56 223.48 226.128C223.48 227.712 222.568 229.12 220.92 229.12ZM233.116 230V224.576C233.116 222.896 232.268 222.08 230.652 222.08C229.5 222.08 228.444 222.752 227.9 223.392V222.272H226.7V230H227.9V224.352C228.348 223.728 229.244 223.152 230.188 223.152C231.228 223.152 231.916 223.584 231.916 224.944V230H233.116ZM237.129 229.616C237.129 228.848 236.649 228.4 236.121 228.4C235.641 228.4 235.273 228.8 235.273 229.264C235.273 229.744 235.593 230.08 236.041 230.08C236.121 230.08 236.233 230.064 236.265 230.048C236.201 230.576 235.737 231.2 235.225 231.536L235.817 232.032C236.553 231.504 237.129 230.592 237.129 229.616ZM58.4561 245.168C58.9041 245.168 59.2721 244.816 59.2721 244.368C59.2721 243.92 58.9041 243.552 58.4561 243.552C58.0241 243.552 57.6561 243.92 57.6561 244.368C57.6561 244.816 58.0241 245.168 58.4561 245.168ZM59.0641 254V246.272H57.8641V254H59.0641ZM67.8738 254V248.576C67.8738 246.896 67.0258 246.08 65.4098 246.08C64.2578 246.08 63.2018 246.752 62.6578 247.392V246.272H61.4578V254H62.6578V248.352C63.1058 247.728 64.0018 247.152 64.9458 247.152C65.9858 247.152 66.6738 247.584 66.6738 248.944V254H67.8738ZM72.2223 254.192C72.9263 254.192 73.3583 253.984 73.6623 253.696L73.3103 252.8C73.1503 252.976 72.8303 253.12 72.4943 253.12C71.9663 253.12 71.7103 252.704 71.7103 252.128V247.328H73.2783V246.272H71.7103V244.16H70.5103V246.272H69.2303V247.328H70.5103V252.384C70.5103 253.536 71.0863 254.192 72.2223 254.192ZM78.4614 254.192C79.7254 254.192 80.7654 253.776 81.5334 253.008L80.9574 252.224C80.3494 252.848 79.4534 253.2 78.5734 253.2C76.9094 253.2 75.8854 251.984 75.7894 250.528H82.0454V250.224C82.0454 247.904 80.6694 246.08 78.3334 246.08C76.1254 246.08 74.5254 247.888 74.5254 250.128C74.5254 252.544 76.1734 254.192 78.4614 254.192ZM80.8614 249.648H75.7894C75.8534 248.464 76.6694 247.072 78.3174 247.072C80.0774 247.072 80.8454 248.496 80.8614 249.648ZM85.1891 254V248.528C85.5411 247.904 86.5491 247.296 87.2851 247.296C87.4771 247.296 87.6211 247.312 87.7651 247.344V246.112C86.7091 246.112 85.8131 246.704 85.1891 247.52V246.272H83.9891V254H85.1891ZM93.0783 254.192C95.1103 254.192 96.5183 252.624 96.5183 250.128C96.5183 247.616 95.1103 246.08 93.0783 246.08C91.9903 246.08 91.0303 246.64 90.4703 247.424V246.272H89.2703V256.944H90.4703V252.832C91.0943 253.696 92.0223 254.192 93.0783 254.192ZM92.7743 253.12C91.8303 253.12 90.8863 252.544 90.4703 251.872V248.384C90.8863 247.712 91.8303 247.152 92.7743 247.152C94.3263 247.152 95.2543 248.416 95.2543 250.128C95.2543 251.84 94.3263 253.12 92.7743 253.12ZM99.6266 254V248.528C99.9786 247.904 100.987 247.296 101.723 247.296C101.915 247.296 102.059 247.312 102.203 247.344V246.112C101.147 246.112 100.251 246.704 99.6266 247.52V246.272H98.4266V254H99.6266ZM107.196 254.192C108.46 254.192 109.5 253.776 110.268 253.008L109.692 252.224C109.084 252.848 108.188 253.2 107.308 253.2C105.644 253.2 104.62 251.984 104.524 250.528H110.78V250.224C110.78 247.904 109.404 246.08 107.068 246.08C104.86 246.08 103.26 247.888 103.26 250.128C103.26 252.544 104.908 254.192 107.196 254.192ZM109.596 249.648H104.524C104.588 248.464 105.404 247.072 107.052 247.072C108.812 247.072 109.58 248.496 109.596 249.648ZM114.675 254.192C115.379 254.192 115.811 253.984 116.115 253.696L115.763 252.8C115.603 252.976 115.283 253.12 114.947 253.12C114.419 253.12 114.163 252.704 114.163 252.128V247.328H115.731V246.272H114.163V244.16H112.963V246.272H111.683V247.328H112.963V252.384C112.963 253.536 113.539 254.192 114.675 254.192ZM123.459 254V248.688C123.459 246.816 122.099 246.08 120.467 246.08C119.203 246.08 118.211 246.496 117.379 247.36L117.939 248.192C118.627 247.456 119.379 247.12 120.307 247.12C121.427 247.12 122.259 247.712 122.259 248.752V250.144C121.635 249.424 120.755 249.088 119.699 249.088C118.387 249.088 116.995 249.904 116.995 251.632C116.995 253.312 118.387 254.192 119.699 254.192C120.739 254.192 121.619 253.824 122.259 253.12V254H123.459ZM120.131 253.328C119.011 253.328 118.227 252.624 118.227 251.648C118.227 250.656 119.011 249.952 120.131 249.952C120.979 249.952 121.795 250.272 122.259 250.912V252.368C121.795 253.008 120.979 253.328 120.131 253.328ZM127.816 254.192C128.52 254.192 128.952 253.984 129.256 253.696L128.904 252.8C128.744 252.976 128.424 253.12 128.088 253.12C127.56 253.12 127.304 252.704 127.304 252.128V247.328H128.872V246.272H127.304V244.16H126.104V246.272H124.824V247.328H126.104V252.384C126.104 253.536 126.68 254.192 127.816 254.192ZM131.159 245.168C131.607 245.168 131.975 244.816 131.975 244.368C131.975 243.92 131.607 243.552 131.159 243.552C130.727 243.552 130.359 243.92 130.359 244.368C130.359 244.816 130.727 245.168 131.159 245.168ZM131.767 254V246.272H130.567V254H131.767ZM137.537 254.192C139.889 254.192 141.361 252.368 141.361 250.128C141.361 247.888 139.889 246.08 137.537 246.08C135.185 246.08 133.713 247.888 133.713 250.128C133.713 252.368 135.185 254.192 137.537 254.192ZM137.537 253.12C135.889 253.12 134.961 251.712 134.961 250.128C134.961 248.56 135.889 247.152 137.537 247.152C139.185 247.152 140.097 248.56 140.097 250.128C140.097 251.712 139.185 253.12 137.537 253.12ZM149.733 254V248.576C149.733 246.896 148.885 246.08 147.269 246.08C146.117 246.08 145.061 246.752 144.517 247.392V246.272H143.317V254H144.517V248.352C144.965 247.728 145.861 247.152 146.805 247.152C147.845 247.152 148.533 247.584 148.533 248.944V254H149.733ZM159.631 254.192C161.983 254.192 163.455 252.368 163.455 250.128C163.455 247.888 161.983 246.08 159.631 246.08C157.279 246.08 155.807 247.888 155.807 250.128C155.807 252.368 157.279 254.192 159.631 254.192ZM159.631 253.12C157.983 253.12 157.055 251.712 157.055 250.128C157.055 248.56 157.983 247.152 159.631 247.152C161.279 247.152 162.191 248.56 162.191 250.128C162.191 251.712 161.279 253.12 159.631 253.12ZM166.611 254V248.528C166.963 247.904 167.971 247.296 168.707 247.296C168.899 247.296 169.043 247.312 169.187 247.344V246.112C168.131 246.112 167.235 246.704 166.611 247.52V246.272H165.411V254H166.611ZM178.193 254L181.409 246.272H180.097L177.537 252.608L174.961 246.272H173.665L176.881 254H178.193ZM183.253 245.168C183.701 245.168 184.069 244.816 184.069 244.368C184.069 243.92 183.701 243.552 183.253 243.552C182.821 243.552 182.453 243.92 182.453 244.368C182.453 244.816 182.821 245.168 183.253 245.168ZM183.861 254V246.272H182.661V254H183.861ZM188.703 254.192C190.703 254.192 191.743 253.152 191.743 251.856C191.743 248.848 186.959 249.968 186.959 248.272C186.959 247.584 187.615 247.056 188.671 247.056C189.663 247.056 190.511 247.472 190.975 248.032L191.535 247.2C190.911 246.576 189.983 246.08 188.671 246.08C186.831 246.08 185.791 247.104 185.791 248.304C185.791 251.168 190.575 250.016 190.575 251.888C190.575 252.656 189.935 253.216 188.751 253.216C187.695 253.216 186.719 252.704 186.207 252.112L185.583 252.976C186.367 253.808 187.439 254.192 188.703 254.192ZM200.108 254V246.272H198.908V251.952C198.46 252.576 197.564 253.12 196.62 253.12C195.58 253.12 194.892 252.72 194.892 251.36V246.272H193.692V251.728C193.692 253.408 194.54 254.192 196.156 254.192C197.308 254.192 198.316 253.584 198.908 252.912V254H200.108ZM208.537 254V248.688C208.537 246.816 207.177 246.08 205.545 246.08C204.281 246.08 203.289 246.496 202.457 247.36L203.017 248.192C203.705 247.456 204.457 247.12 205.385 247.12C206.505 247.12 207.337 247.712 207.337 248.752V250.144C206.713 249.424 205.833 249.088 204.777 249.088C203.465 249.088 202.073 249.904 202.073 251.632C202.073 253.312 203.465 254.192 204.777 254.192C205.817 254.192 206.697 253.824 207.337 253.12V254H208.537ZM205.209 253.328C204.089 253.328 203.305 252.624 203.305 251.648C203.305 250.656 204.089 249.952 205.209 249.952C206.057 249.952 206.873 250.272 207.337 250.912V252.368C206.873 253.008 206.057 253.328 205.209 253.328ZM212.142 254V243.328H210.942V254H212.142Z" fill="#919299"/>
</svg>
